<svg width="295" height="230" viewBox="0 0 295 230" fill="none" xmlns="http://www.w3.org/2000/svg">
<path d="M295 197.073H6.10352e-05V197.221H295V197.073Z" fill="#EBEBEB"/>
<path d="M265.441 206.566H245.9V206.714H265.441V206.566Z" fill="#EBEBEB"/>
<path d="M195.42 208.171H172.28V208.318H195.42V208.171Z" fill="#EBEBEB"/>
<path d="M245.31 201.091H211.668V201.239H245.31V201.091Z" fill="#EBEBEB"/>
<path d="M143.435 202.082H102.943V202.23H143.435V202.082Z" fill="#EBEBEB"/>
<path d="M152.421 202.082H148.686V202.23H152.421V202.082Z" fill="#EBEBEB"/>
<path d="M132.833 204.572H58.0148V204.72H132.833V204.572Z" fill="#EBEBEB"/>
<path d="M139.83 170.759H25.907C25.0145 170.758 24.1591 170.402 23.5286 169.77C22.8981 169.139 22.544 168.283 22.544 167.39V7.24663C22.5517 6.35928 22.9093 5.51083 23.539 4.88558C24.1686 4.26032 25.0196 3.90875 25.907 3.90723H139.83C140.724 3.90723 141.58 4.26216 142.212 4.89395C142.844 5.52575 143.199 6.38264 143.199 7.27613V167.39C143.199 168.284 142.844 169.141 142.212 169.773C141.58 170.404 140.724 170.759 139.83 170.759ZM25.907 4.02523C25.0536 4.02679 24.2358 4.36687 23.6329 4.97084C23.03 5.5748 22.6915 6.39328 22.6915 7.24663V167.39C22.6915 168.244 23.03 169.062 23.6329 169.666C24.2358 170.27 25.0536 170.61 25.907 170.612H139.83C140.684 170.61 141.502 170.27 142.106 169.666C142.71 169.063 143.05 168.244 143.051 167.39V7.24663C143.05 6.39274 142.71 5.57427 142.106 4.97048C141.502 4.36668 140.684 4.02679 139.83 4.02523H25.907Z" fill="#EBEBEB"/>
<path d="M267.453 170.759H153.524C152.631 170.758 151.775 170.402 151.144 169.771C150.512 169.139 150.157 168.283 150.155 167.39V7.24663C150.164 6.35874 150.523 5.5103 151.154 4.88521C151.784 4.26011 152.636 3.90873 153.524 3.90723H267.453C268.339 3.9103 269.189 4.26255 269.817 4.88765C270.446 5.51274 270.802 6.3603 270.81 7.24663V167.39C270.81 168.282 270.457 169.137 269.827 169.768C269.198 170.4 268.344 170.756 267.453 170.759ZM153.524 4.02523C152.67 4.02679 151.852 4.36668 151.248 4.97048C150.644 5.57427 150.304 6.39274 150.303 7.24663V167.39C150.304 168.244 150.644 169.063 151.248 169.666C151.852 170.27 152.67 170.61 153.524 170.612H267.453C268.307 170.61 269.125 170.27 269.729 169.666C270.333 169.063 270.673 168.244 270.674 167.39V7.24663C270.673 6.39274 270.333 5.57427 269.729 4.97048C269.125 4.36668 268.307 4.02679 267.453 4.02523H153.524Z" fill="#EBEBEB"/>
<path d="M171.495 115.83V19.1647L41.8546 19.1647V115.83L171.495 115.83Z" fill="#EBEBEB"/>
<path d="M172.28 115.83V19.1647H171.495V115.83H172.28Z" fill="#E0E0E0"/>
<path d="M48.268 109.405L165.076 109.405V25.5719L48.268 25.5719L48.268 109.405Z" fill="#F5F5F5"/>
<path d="M134.013 113.901H154.792V84.8139H134.013V113.901Z" fill="white"/>
<path d="M103.533 103.664H124.307L125.8 74.5774H105.026L103.533 103.664Z" fill="white"/>
<path d="M90.5238 113.901H111.304V84.8139H90.5238V113.901Z" fill="white"/>
<path d="M60.0444 103.664H80.8242L82.3169 74.5774H61.543L60.0444 103.664Z" fill="white"/>
<path d="M77.6146 67.344L105.899 69.3618L110.761 29.9144L82.4703 27.8966L77.6146 67.344Z" fill="white"/>
<path d="M145.606 51.9095H166.38L167.879 22.8225H147.099L145.606 51.9095Z" fill="white"/>
<path d="M118.307 68.5596L139.067 69.4696L140.341 40.4105L119.581 39.5005L118.307 68.5596Z" fill="white"/>
<path d="M45.5296 60.4748L66.3007 59.8728L65.4581 30.798L44.687 31.4L45.5296 60.4748Z" fill="white"/>
<path d="M198.6 104.98H251.381V27.3596H198.6V104.98Z" fill="#E0E0E0"/>
<path d="M195.42 104.98H249.942V27.3596H195.42V104.98Z" fill="#F5F5F5"/>
<path d="M199.986 33.478V98.8677H245.375V33.478H199.986Z" fill="white"/>
<path d="M228.33 69.3322V74.3059C226.847 74.3067 225.378 74.0151 224.007 73.448C222.636 72.8808 221.39 72.0491 220.341 71.0004C219.292 69.9518 218.46 68.7066 217.892 67.3361C217.324 65.9657 217.032 64.4967 217.032 63.0133V58.0337C220.028 58.0337 222.902 59.2241 225.021 61.3429C227.14 63.4618 228.33 66.3356 228.33 69.3322Z" fill="#F5F5F5"/>
<path d="M228.33 52.5409V57.5205C225.334 57.5205 222.46 56.3301 220.341 54.2112C218.222 52.0924 217.032 49.2185 217.032 46.222V41.2483C218.515 41.2475 219.984 41.539 221.355 42.1062C222.726 42.6734 223.971 43.505 225.02 44.5537C226.07 45.6024 226.902 46.8476 227.47 48.218C228.038 49.5885 228.33 51.0574 228.33 52.5409Z" fill="#F5F5F5"/>
<path d="M228.33 86.1178V91.0974C225.334 91.0974 222.46 89.9071 220.341 87.7882C218.222 85.6693 217.032 82.7955 217.032 79.7989V74.8193C220.028 74.8193 222.902 76.0097 225.021 78.1286C227.14 80.2475 228.33 83.1213 228.33 86.1178Z" fill="#F5F5F5"/>
<path d="M153.471 193.167H170.032V131.566H153.471V193.167Z" fill="#F0F0F0"/>
<path d="M53.6015 197.073H164.693V193.167H53.6015V197.073Z" fill="#F0F0F0"/>
<path d="M153.471 131.572H48.2738V193.173H153.471V131.572Z" fill="#F5F5F5"/>
<path d="M142.55 139.153H59.1948V159.355H142.55V139.153Z" fill="#F0F0F0"/>
<path d="M142.55 165.384H59.1948V185.586H142.55V165.384Z" fill="#F0F0F0"/>
<path d="M88.3762 160.021H113.369C114.043 160.021 114.59 159.474 114.59 158.8V158.469C114.59 157.795 114.043 157.248 113.369 157.248H88.3762C87.7017 157.248 87.1549 157.795 87.1549 158.469V158.8C87.1549 159.474 87.7017 160.021 88.3762 160.021Z" fill="#F5F5F5"/>
<path d="M88.3762 186.259H113.369C114.043 186.259 114.59 185.712 114.59 185.037V184.707C114.59 184.032 114.043 183.486 113.369 183.486H88.3762C87.7017 183.486 87.1549 184.032 87.1549 184.707V185.037C87.1549 185.712 87.7017 186.259 88.3762 186.259Z" fill="#F5F5F5"/>
<path d="M226.017 181.887C226.059 167.615 226.413 148.15 228.808 141.106L232.088 139.772C232.088 139.772 231.28 141.094 229.51 162.989C227.84 183.432 227.657 179.78 227.781 181.869C227.781 182.158 227.38 182.4 226.873 182.388C226.395 182.376 226.017 182.158 226.017 181.887Z" fill="#E6E6E6"/>
<path d="M224.135 137.879C219.386 133.932 209.025 130.976 198.122 130.763C193.839 130.681 206.246 140.091 214.642 144.628C220.878 148.003 227.758 151.065 229.451 154.658C229.009 147.142 228.92 141.82 224.135 137.879Z" fill="#E6E6E6"/>
<path d="M224.843 157.478C221.533 154.729 214.312 152.67 206.712 152.522C203.727 152.463 212.376 159.012 218.223 162.186C222.566 164.546 227.362 166.67 228.542 169.19C228.242 163.939 228.159 160.257 224.843 157.478Z" fill="#E6E6E6"/>
<path d="M233.894 147.867C239.334 143.495 251.004 140.286 263.252 140.15C268.055 140.103 257.187 149.749 245.688 154.198C237.711 157.307 229.451 162.617 227.451 166.665C228.159 158.228 228.454 152.263 233.894 147.867Z" fill="#E6E6E6"/>
<path d="M230.926 134.091C234.496 130.439 242.52 127.011 251.086 125.736C254.449 125.235 249.977 131.849 239.587 137.365C234.106 140.268 228.625 145.035 227.445 148.109C227.475 142.02 227.351 137.737 230.926 134.091Z" fill="#E6E6E6"/>
<path d="M217.763 179.485L218.63 196.342C218.641 196.538 218.726 196.724 218.869 196.86C219.011 196.996 219.2 197.072 219.397 197.073H238.454C238.651 197.072 238.841 196.996 238.983 196.86C239.126 196.724 239.211 196.538 239.221 196.342L240.089 179.485H217.763Z" fill="#F0F0F0"/>
<path d="M241.534 183.06H216.318L215.598 176.517H242.26L241.534 183.06Z" fill="#F0F0F0"/>
<path d="M147.5 229.618C210.679 229.618 261.895 226.628 261.895 222.939C261.895 219.25 210.679 216.26 147.5 216.26C84.3214 216.26 33.105 219.25 33.105 222.939C33.105 226.628 84.3214 229.618 147.5 229.618Z" fill="#F5F5F5"/>
<path d="M225.008 19.8372L224.448 19.6484C224.796 18.6059 224.973 17.5141 224.973 16.4152H225.563C225.562 17.5781 225.374 18.7333 225.008 19.8372Z" fill="#FFFF00"/>
<path d="M224.542 13.4535C224.071 11.8959 223.244 10.4696 222.126 9.28766C221.007 8.10576 219.629 7.2009 218.099 6.64493L218.3 6.09033C219.916 6.67701 221.373 7.63338 222.554 8.88313C223.736 10.1329 224.608 11.6414 225.103 13.2883L224.542 13.4535Z" fill="#FFFF00"/>
<path d="M223.498 16.4212C223.499 14.787 223.052 13.1837 222.205 11.7865C221.357 10.3892 220.142 9.25161 218.692 8.49782C217.242 7.74404 215.613 7.40305 213.982 7.51206C212.352 7.62107 210.782 8.1759 209.445 9.11599C208.109 10.0561 207.056 11.3453 206.402 12.843C205.748 14.3406 205.518 15.9891 205.737 17.6086C205.956 19.2281 206.616 20.7563 207.644 22.0264C208.672 23.2965 210.03 24.2598 211.568 24.811L217.692 27.171L216.53 25.1473C218.511 24.7028 220.281 23.5959 221.548 22.0093C222.815 20.4228 223.503 18.4515 223.498 16.4212Z" fill="#FFFF00"/>
<path d="M200.801 22.1264C200.8 20.9289 201.128 19.7542 201.749 18.7303C202.37 17.7065 203.26 16.8729 204.322 16.3205C205.385 15.7682 206.579 15.5182 207.774 15.598C208.968 15.6778 210.118 16.0843 211.098 16.773C212.077 17.4618 212.849 18.4064 213.328 19.5037C213.808 20.601 213.977 21.809 213.816 22.9957C213.656 24.1824 213.173 25.3023 212.42 26.2331C211.666 27.164 210.672 27.87 209.544 28.2742L205.055 30.0442L205.91 28.5043C204.462 28.1779 203.167 27.369 202.239 26.2101C201.31 25.0512 200.803 23.6113 200.801 22.1264Z" fill="#263238"/>
<path d="M235.552 41.3191C233.08 43.5021 227.829 45.1187 224.808 44.8591C223.268 54.7593 231.546 62.6417 231.546 62.6417C231.546 62.6417 242.124 58.3052 244.278 48.5171C241.369 47.6675 237.062 44.2514 235.552 41.3191Z" fill="#FFFF00"/>
<path opacity="0.3" d="M226.118 46.3284C225.651 53.1724 230.135 58.9072 231.882 60.8601C234.242 59.6801 240.472 55.9572 242.502 49.4141C239.624 48.0168 237.11 45.971 235.156 43.4374C232.408 45.0879 229.314 46.0776 226.118 46.3284Z" fill="white"/>
<path d="M125.405 14.2501L133.476 5.67151L144.167 10.598L125.405 14.2501Z" fill="#FFFF00"/>
<path d="M144.17 10.6018L125.406 14.2526C124.545 14.42 123.984 15.2532 124.151 16.1136L126.171 26.4975C126.339 27.3579 127.172 27.9197 128.032 27.7523L146.796 24.1015C147.657 23.9341 148.219 23.1009 148.051 22.2405L146.031 11.8566C145.863 10.9962 145.03 10.4344 144.17 10.6018Z" fill="#FFFF00"/>
<path opacity="0.4" d="M125.405 14.2499L136.101 19.1705L144.167 10.5978L125.405 14.2499Z" fill="black"/>
<path d="M125.599 7.70678L128.284 15.5715L136.101 19.1705L142.402 12.474L139.187 3.06348L125.599 7.70678Z" fill="#FFFF00"/>
<g opacity="0.7">
<path d="M125.599 7.70678L128.284 15.5715L136.101 19.1705L142.402 12.474L139.187 3.06348L125.599 7.70678Z" fill="white"/>
</g>
<path d="M124.378 41.8385L123.316 41.7795C123.096 41.4374 122.841 41.1191 122.555 40.8296L122.732 39.7794L120.13 38.3457L119.339 39.0537C118.939 38.97 118.533 38.9245 118.124 38.918L117.534 38.0507L114.678 38.8767L114.619 39.9446C114.274 40.1629 113.954 40.4181 113.664 40.7057L112.619 40.5228L111.186 43.1306L111.888 43.9153C111.803 44.3171 111.758 44.726 111.752 45.1366L110.891 45.7266L111.717 48.5822L112.773 48.6412C112.995 48.9834 113.25 49.3035 113.534 49.597L113.357 50.6413L115.965 52.075L116.749 51.367C117.151 51.4509 117.56 51.4964 117.971 51.5027L118.561 52.37L121.416 51.544L121.469 50.482C121.811 50.2559 122.131 49.9992 122.425 49.715L123.469 49.892L124.903 47.2901L124.189 46.4995C124.276 46.1118 124.323 45.7165 124.331 45.3195L125.198 44.7295L124.378 41.8385ZM118.856 48.0571C118.295 48.2182 117.7 48.2096 117.144 48.0324C116.589 47.8552 116.098 47.5174 115.734 47.0615C115.371 46.6057 115.15 46.0523 115.101 45.4713C115.052 44.8902 115.176 44.3076 115.457 43.797C115.739 43.2865 116.166 42.8708 116.683 42.6026C117.201 42.3343 117.787 42.2255 118.366 42.29C118.946 42.3544 119.493 42.5891 119.94 42.9645C120.386 43.3399 120.711 43.8391 120.873 44.3991C120.982 44.7717 121.015 45.1621 120.972 45.5478C120.93 45.9335 120.811 46.307 120.624 46.6468C120.436 46.9866 120.183 47.2861 119.88 47.5281C119.577 47.7701 119.229 47.9498 118.856 48.0571Z" fill="#FFFF00"/>
<path d="M110.43 40.322L109.781 40.2866C109.648 40.0735 109.492 39.8757 109.315 39.6966L109.427 39.0535L107.834 38.1744L107.345 38.611C107.103 38.557 106.855 38.5293 106.607 38.5284L106.23 37.9974L104.46 38.5048L104.424 39.1538C104.211 39.2871 104.013 39.4434 103.834 39.6199L103.191 39.5078L102.312 41.1008L102.743 41.5846C102.694 41.8316 102.666 42.0823 102.66 42.3339L102.135 42.7056L102.636 44.4756L103.285 44.511C103.425 44.7216 103.583 44.9191 103.757 45.101L103.645 45.7382L105.238 46.6173L105.722 46.1866C105.969 46.2352 106.22 46.2628 106.471 46.2692L106.843 46.8002L108.613 46.2928L108.649 45.6438C108.859 45.5067 109.056 45.3507 109.239 45.1777L109.876 45.2839L110.755 43.6909L110.318 43.2071C110.372 42.9628 110.401 42.7138 110.407 42.4637L110.932 42.0861L110.43 40.322ZM107.38 45.2072C106.819 45.3707 106.222 45.3639 105.665 45.1877C105.108 45.0116 104.616 44.674 104.251 44.2178C103.886 43.7616 103.665 43.2073 103.615 42.6252C103.566 42.0431 103.69 41.4594 103.973 40.9481C104.255 40.4367 104.684 40.0208 105.203 39.7531C105.722 39.4853 106.309 39.3778 106.89 39.4441C107.47 39.5104 108.018 39.7475 108.463 40.1254C108.909 40.5034 109.232 41.0051 109.392 41.5669C109.605 42.3164 109.514 43.1199 109.137 43.802C108.76 44.484 108.128 44.9892 107.38 45.2072Z" fill="#263238"/>
<path d="M173.372 28.3215C170.634 27.8082 169.472 29.5015 169.56 31.9205C169.649 34.3395 167.755 37.8205 170.15 38.2866C172.546 38.7527 176.327 28.8702 173.372 28.3215Z" fill="#263238"/>
<path d="M163.288 151.997C171.489 128.574 177.702 98.1065 177.702 98.1065L155.241 97.7407C155.241 97.7407 151.783 136.238 149.86 152.587C147.848 169.585 140.969 207.292 140.969 207.292L150.828 210.077C150.828 210.077 161.902 173.149 163.288 151.997Z" fill="#263238"/>
<path opacity="0.2" d="M167.56 115.028C167.56 115.028 166.905 133.017 166.103 143.425C168.215 136.669 170.132 129.725 171.773 123.365L167.56 115.028Z" fill="black"/>
<path d="M147.559 217.446L146.715 222.248C146.691 222.367 146.642 222.48 146.572 222.579C146.502 222.678 146.413 222.762 146.31 222.825C146.207 222.889 146.091 222.931 145.971 222.948C145.851 222.966 145.729 222.958 145.612 222.927C144.155 222.514 143.553 222.089 141.022 221.334C138.072 220.443 135.435 220.113 131.965 219.074C129.865 218.443 130.785 215.882 132.555 215.9C136.296 215.941 138.414 214.626 140.367 214.059C141.305 212.513 142.556 206.702 142.556 206.702L150.497 209.54C150.497 209.54 148.179 214.985 147.559 217.446Z" fill="#FFFF00"/>
<path d="M141.01 208.732L150.031 211.434C150.214 211.486 150.409 211.47 150.582 211.39C150.754 211.31 150.891 211.17 150.969 210.997L152.303 208.088C152.349 207.992 152.375 207.887 152.377 207.78C152.38 207.673 152.359 207.567 152.317 207.469C152.275 207.37 152.213 207.282 152.134 207.21C152.055 207.138 151.962 207.083 151.86 207.05L142.084 203.953C141.976 203.921 141.863 203.912 141.751 203.927C141.64 203.942 141.533 203.981 141.437 204.039C141.342 204.098 141.259 204.177 141.196 204.27C141.133 204.362 141.089 204.467 141.069 204.578L140.479 207.882C140.447 208.064 140.484 208.252 140.582 208.409C140.68 208.565 140.832 208.68 141.01 208.732Z" fill="#263238"/>
<path opacity="0.1" d="M141.01 208.732L150.031 211.434C150.214 211.486 150.409 211.47 150.582 211.39C150.754 211.31 150.891 211.17 150.969 210.997L152.303 208.088C152.349 207.992 152.375 207.887 152.377 207.78C152.38 207.673 152.359 207.567 152.317 207.469C152.275 207.37 152.213 207.282 152.134 207.21C152.055 207.138 151.962 207.083 151.86 207.05L142.084 203.953C141.976 203.921 141.863 203.912 141.751 203.927C141.64 203.942 141.533 203.981 141.437 204.039C141.342 204.098 141.259 204.177 141.196 204.27C141.133 204.362 141.089 204.467 141.069 204.578L140.479 207.882C140.447 208.064 140.484 208.252 140.582 208.409C140.68 208.565 140.832 208.68 141.01 208.732Z" fill="white"/>
<path d="M188.352 221.269L187.431 217.139C187.148 214.626 187.337 208.802 187.337 208.802L179.407 209.003C179.407 209.003 179.997 214.313 179.968 216.183C178.446 217.251 176.917 218.744 173.619 219.723C172.068 220.178 172.215 222.868 174.268 222.903C177.673 222.962 180.086 222.567 182.989 222.62C185.467 222.662 185.756 222.903 187.178 222.903C187.374 222.902 187.567 222.855 187.741 222.764C187.915 222.674 188.066 222.544 188.18 222.385C188.295 222.226 188.37 222.042 188.4 221.848C188.43 221.654 188.413 221.456 188.352 221.269Z" fill="#FFFF00"/>
<path d="M185.573 150.593C184.888 126.362 187.608 112.42 184.039 98.2245L163.607 97.9177C163.607 97.9177 169.076 136.362 171.761 152.375C174.445 168.387 178.251 208.82 178.251 208.82L188.281 208.944C188.281 208.944 189.443 169.343 185.573 150.593Z" fill="#263238"/>
<path d="M178.475 210.62L187.962 210.767C188.166 210.776 188.366 210.707 188.521 210.575C188.677 210.442 188.776 210.256 188.8 210.053L189.125 206.914C189.137 206.813 189.128 206.71 189.098 206.613C189.069 206.515 189.019 206.425 188.952 206.348C188.885 206.27 188.803 206.208 188.711 206.164C188.619 206.121 188.519 206.097 188.417 206.094L178.086 205.776C177.969 205.773 177.853 205.795 177.747 205.842C177.64 205.888 177.544 205.957 177.467 206.044C177.389 206.131 177.332 206.234 177.298 206.346C177.264 206.457 177.255 206.575 177.271 206.69L177.785 209.994C177.809 210.162 177.892 210.317 178.018 210.431C178.143 210.545 178.305 210.612 178.475 210.62Z" fill="#263238"/>
<path opacity="0.1" d="M178.475 210.62L187.962 210.767C188.166 210.776 188.366 210.707 188.521 210.575C188.677 210.442 188.776 210.256 188.8 210.053L189.125 206.914C189.137 206.813 189.128 206.71 189.098 206.613C189.069 206.515 189.019 206.425 188.952 206.348C188.885 206.27 188.803 206.208 188.711 206.164C188.619 206.121 188.519 206.097 188.417 206.094L178.086 205.776C177.969 205.773 177.853 205.795 177.747 205.842C177.64 205.888 177.544 205.957 177.467 206.044C177.389 206.131 177.332 206.234 177.298 206.346C177.264 206.457 177.255 206.575 177.271 206.69L177.785 209.994C177.809 210.162 177.892 210.317 178.018 210.431C178.143 210.545 178.305 210.612 178.475 210.62Z" fill="white"/>
<path d="M162.321 53.4966H162.25L152.68 52.7709C149.99 52.5507 147.313 52.295 144.65 52.0039C144.315 51.4127 144.016 50.802 143.754 50.1749C143.22 48.8875 142.777 47.5647 142.426 46.216C142.054 44.8295 141.748 43.3899 141.488 41.9326C141.228 40.4753 141.01 38.9826 140.827 37.5371V37.4191C140.764 36.9379 140.531 36.4951 140.17 36.1701C139.81 35.8451 139.345 35.6592 138.86 35.6457C138.375 35.6322 137.901 35.792 137.523 36.0965C137.145 36.4009 136.888 36.8301 136.797 37.307C136.514 38.9433 136.344 40.5973 136.29 42.2571C136.219 43.9216 136.256 45.5889 136.402 47.2485C136.555 48.9741 136.855 50.6835 137.299 52.3579C137.779 54.1715 138.51 55.9091 139.47 57.5204C139.707 57.9092 140.021 58.2457 140.392 58.5094C140.763 58.7731 141.184 58.9586 141.63 59.0544L141.919 59.1134C143.571 59.4674 145.229 59.8096 146.886 60.0751C148.544 60.3406 150.202 60.612 151.866 60.8244C153.53 61.0368 155.194 61.2138 156.863 61.3613C158.533 61.5088 160.179 61.615 161.92 61.6622C162.974 61.6711 163.991 61.2722 164.759 60.5489C165.526 59.8255 165.984 58.8336 166.038 57.7804C166.091 56.7271 165.735 55.694 165.045 54.8969C164.354 54.0997 163.383 53.6001 162.333 53.5025L162.321 53.4966Z" fill="#FF8B7B"/>
<path d="M168.339 54.0573C163.167 53.0758 157.936 52.4411 152.68 52.1575C151.658 56.3444 151.737 60.7247 152.91 64.872C152.91 64.872 155.241 66.052 161.855 65.2378C169.247 64.282 174.563 55.3258 168.339 54.0573Z" fill="#FFFF00"/>
<path d="M185.579 56.2462C180.038 54.9321 174.379 54.1868 168.687 54.0219C162.527 53.898 157.707 56.9424 156.533 62.9958C154.221 75.1135 153.58 87.4907 154.627 99.7823C154.674 101.971 182.428 101.782 184.717 99.7823C185.714 91.9648 184.617 83.5868 189.744 66.0874C190.794 62.4884 189.189 57.1076 185.579 56.2462Z" fill="#FFFF00"/>
<path d="M168.964 62.3173C168.846 62.8247 168.534 63.1846 168.262 63.1197C167.991 63.0548 167.873 62.5946 167.991 62.0872C168.109 61.5798 168.421 61.2199 168.693 61.2848C168.964 61.3497 169.082 61.8335 168.964 62.3173Z" fill="white"/>
<path d="M216.624 47.8977C216.814 46.1483 216.879 44.3876 216.819 42.629C216.798 42.1155 216.594 41.6265 216.245 41.2498C215.895 40.8731 215.423 40.6333 214.913 40.5736C214.402 40.5139 213.887 40.6381 213.46 40.924C213.033 41.2099 212.722 41.6387 212.583 42.1334L212.548 42.2573C212.14 43.7087 211.692 45.284 211.191 46.759C210.689 48.234 210.158 49.709 209.55 51.1014C208.979 52.4632 208.315 53.784 207.562 55.0544C207.19 55.6677 206.782 56.2587 206.341 56.8244C203.509 56.726 200.665 56.5864 197.809 56.4055L187.673 55.7093H187.62C186.478 55.6036 185.34 55.9561 184.458 56.6892C183.575 57.4222 183.02 58.4757 182.915 59.618C182.809 60.7603 183.162 61.8978 183.895 62.7802C184.628 63.6626 185.681 64.2176 186.824 64.3233C188.653 64.5416 190.364 64.6714 192.163 64.7835C193.963 64.8956 195.703 64.9546 197.473 64.9782C199.243 65.0018 201.013 64.9782 202.783 64.9782C204.553 64.9782 206.353 64.8425 208.14 64.7245H208.459C208.939 64.6916 209.408 64.5611 209.836 64.3409C210.264 64.1208 210.643 63.8156 210.949 63.4442C212.2 61.9032 213.227 60.193 213.999 58.3643C214.723 56.6808 215.299 54.9377 215.722 53.1546C216.138 51.4241 216.44 49.668 216.624 47.8977Z" fill="#FF8B7B"/>
<path d="M181.236 55.3257C186.803 55.0852 192.379 55.2173 197.927 55.721C198.365 60.2632 197.617 64.8412 195.756 69.0078C195.756 69.0078 193.131 69.8987 186.316 68.0284C178.723 65.9339 174.516 55.7328 181.236 55.3257Z" fill="#FFFF00"/>
<path d="M215.775 45.2072L220.4 41.8029L215.031 37.4487C215.031 37.4487 211.22 41.0772 212.748 43.4372L215.775 45.2072Z" fill="#FF8B7B"/>
<path d="M221.409 35.7671L219.279 34.5871C218.869 34.3569 218.388 34.2843 217.927 34.3832C217.467 34.482 217.058 34.7454 216.778 35.124L215.008 37.4368L220.377 41.791L222.147 38.5814C222.419 38.1096 222.494 37.5497 222.356 37.023C222.218 36.4962 221.878 36.0451 221.409 35.7671Z" fill="#FF8B7B"/>
<path d="M221.893 70.0169C221.699 69.5128 221.313 69.106 220.82 68.8849C220.328 68.6639 219.767 68.6467 219.262 68.8369H219.191C217.799 69.362 216.329 69.9225 214.902 70.424C213.474 70.9255 212.028 71.427 210.595 71.8636C209.161 72.3002 207.733 72.6837 206.329 73.0436C205.532 73.2206 204.742 73.3681 203.969 73.4802C202.002 71.6591 200.036 69.7986 198.069 67.8988L191.243 61.1374L191.201 61.0961C190.436 60.3713 189.421 59.9699 188.368 59.9755C187.314 59.9811 186.303 60.3933 185.546 61.1262C184.789 61.859 184.344 62.8559 184.303 63.9088C184.263 64.9618 184.632 65.9896 185.331 66.7778C186.511 68.0581 187.691 69.2204 188.871 70.3945C190.051 71.5686 191.296 72.7014 192.558 73.8106C193.821 74.9198 195.084 76.0113 196.387 77.0733C197.691 78.1353 199.031 79.1737 200.382 80.1885L200.641 80.3891C201.003 80.6561 201.416 80.8462 201.855 80.9476C202.293 81.0491 202.748 81.0598 203.19 80.9791C204.928 80.6536 206.635 80.1818 208.294 79.569C209.867 78.9824 211.407 78.3108 212.907 77.5571C214.382 76.8098 215.812 76.0034 217.197 75.1381C218.595 74.2781 219.948 73.3466 221.25 72.3474C221.591 72.0775 221.837 71.7062 221.952 71.2872C222.068 70.8682 222.047 70.4233 221.893 70.0169Z" fill="#FF8B7B"/>
<path d="M187.331 56.9365C191.465 60.1923 195.378 63.7205 199.042 67.4975C196.558 71.0184 193.204 73.8357 189.307 75.6749C189.307 75.6749 186.877 74.6955 183.16 69.1849C179 62.984 182.263 53.0897 187.331 56.9365Z" fill="#FFFF00"/>
<path d="M221.026 72.4711L226.177 70.7011L222.353 65.3911C222.353 65.3911 217.981 67.7511 218.813 70.3176L221.026 72.4711Z" fill="#FF8B7B"/>
<path d="M228.454 65.521L226.808 63.9044C226.491 63.5935 226.072 63.4087 225.629 63.3848C225.186 63.361 224.749 63.4995 224.401 63.7746L222.235 65.4561L226.159 70.6835L228.466 68.2645C228.823 67.8968 229.023 67.4034 229.02 66.8903C229.018 66.3773 228.815 65.8857 228.454 65.521Z" fill="#FF8B7B"/>
<path d="M169.92 59.1608C170.748 60.1556 171.204 61.4068 171.212 62.7008C176.693 61.7627 181.242 59.0428 181.832 55.4084C180.906 54.5352 180.292 54.6886 180.292 54.6886C180.292 54.6886 176.522 57.9395 169.92 59.1608Z" fill="white"/>
<path d="M169.92 59.1607C168.443 59.4158 167.096 60.1622 166.097 61.2789C163.991 59.2316 166.734 54.8419 168.416 54.0159C169.151 53.804 169.923 53.7498 170.681 53.8567C170.681 53.8567 168.351 55.1015 169.92 59.1607Z" fill="white"/>
<path d="M181.248 41.9269C180.192 45.2781 178.859 51.1427 180.204 54.5116C180.367 54.9173 180.388 55.366 180.265 55.7856C180.142 56.2051 179.882 56.571 179.525 56.8244C177.04 58.7122 173.945 59.6157 170.835 59.3614C167.33 59.0723 167.112 57.2551 167.814 55.7152C168 55.3269 168.27 54.9851 168.605 54.7146C168.939 54.4441 169.33 54.2518 169.749 54.1517C173.289 53.2844 173.448 50.299 173.059 47.4198L181.248 41.9269Z" fill="#FF8B7B"/>
<path opacity="0.2" d="M177.909 44.1691L173.065 47.42C173.171 48.1485 173.216 48.8846 173.2 49.6207C174.894 49.5794 177.395 48.0159 177.767 46.2931C177.944 45.5997 177.992 44.8798 177.909 44.1691Z" fill="black"/>
<path d="M184.334 36.9473C182.652 42.0626 181.927 45.1365 178.617 47.1661C173.637 50.2223 167.879 46.3047 167.997 40.8295C168.115 35.8971 170.84 28.3687 176.445 27.525C177.669 27.324 178.924 27.4454 180.087 27.8771C181.25 28.3088 182.28 29.0359 183.076 29.9869C183.872 30.9379 184.407 32.0799 184.628 33.3004C184.848 34.521 184.747 35.7779 184.334 36.9473Z" fill="#FF8B7B"/>
<path d="M169.92 37.9619C169.685 37.9606 169.452 37.9208 169.23 37.8439C168.844 37.6865 168.503 37.4361 168.237 37.1149C167.972 36.7937 167.79 36.4117 167.708 36.0031C167.49 35.0058 167.556 33.9676 167.896 33.0054C168.237 32.0433 168.84 31.1954 169.637 30.5574C169.948 30.2738 170.33 30.08 170.743 29.9966C171.155 29.9133 171.583 29.9434 171.979 30.084C172.376 30.2245 172.727 30.4701 172.995 30.7945C173.263 31.119 173.438 31.5101 173.501 31.9262C173.739 32.9237 173.673 33.9695 173.313 34.9293C172.693 36.7406 171.277 37.9619 169.92 37.9619ZM171.277 30.2565C170.743 30.273 170.229 30.459 169.808 30.7875C169.054 31.3895 168.484 32.1904 168.162 33.0996C167.84 34.0088 167.778 34.9901 167.985 35.9323C168.055 36.2953 168.214 36.6352 168.447 36.9215C168.681 37.2078 168.982 37.4315 169.324 37.5725C170.669 38.0504 172.339 36.8232 173.047 34.829C173.385 33.9256 173.449 32.9424 173.23 32.0029C173.158 31.6392 172.998 31.2989 172.763 31.0118C172.528 30.7247 172.227 30.4998 171.885 30.3568C171.697 30.2908 171.5 30.2569 171.301 30.2565H171.277Z" fill="#263238"/>
<path d="M175.956 40.092C175.72 40.0941 175.487 40.0541 175.265 39.974C173.773 39.443 173.171 37.2718 173.932 35.136C174.254 34.164 174.86 33.3111 175.673 32.6875C175.988 32.4155 176.369 32.2318 176.778 32.1549C177.188 32.078 177.61 32.1107 178.002 32.2497C178.395 32.3887 178.743 32.629 179.013 32.9463C179.283 33.2636 179.463 33.6466 179.537 34.0563C179.775 35.0538 179.709 36.0996 179.348 37.0594C178.705 38.8766 177.283 40.092 175.956 40.092ZM177.313 32.3866C176.778 32.4066 176.263 32.5922 175.838 32.9176C175.074 33.5089 174.503 34.314 174.198 35.2304C173.495 37.2187 174.015 39.2306 175.378 39.7085C176.74 40.1864 178.392 38.9533 179.1 36.965C179.44 36.0596 179.501 35.0736 179.277 34.133C179.207 33.7698 179.047 33.4296 178.814 33.1425C178.58 32.8554 178.279 32.6302 177.938 32.4869C177.737 32.4193 177.525 32.3854 177.313 32.3866Z" fill="#263238"/>
<path d="M174.05 35.3247C174.01 35.3229 173.972 35.306 173.944 35.2775C173.863 35.1708 173.754 35.0895 173.628 35.0435C173.502 34.9975 173.366 34.9886 173.236 35.0179C173.2 35.0273 173.162 35.0229 173.129 35.0054C173.096 34.9879 173.071 34.9586 173.059 34.9235C173.047 34.8874 173.05 34.8484 173.067 34.8143C173.083 34.7803 173.112 34.7539 173.147 34.7406C173.332 34.6965 173.526 34.7059 173.705 34.7675C173.885 34.8291 174.043 34.9405 174.162 35.0887C174.187 35.1159 174.201 35.1518 174.201 35.189C174.201 35.2262 174.187 35.262 174.162 35.2893C174.147 35.3032 174.13 35.3136 174.11 35.3197C174.091 35.3259 174.07 35.3275 174.05 35.3247Z" fill="#263238"/>
<path d="M183.319 39.8441C183.292 39.8523 183.263 39.8523 183.236 39.8441C180.239 37.6788 179.106 37.4251 179.106 37.4251C179.069 37.418 179.036 37.3964 179.014 37.3648C178.992 37.3333 178.984 37.2945 178.991 37.2569C178.998 37.2194 179.02 37.1861 179.052 37.1646C179.083 37.143 179.122 37.1348 179.159 37.1419C179.207 37.1419 180.339 37.3897 183.413 39.614C183.444 39.6364 183.465 39.6698 183.471 39.7072C183.478 39.7445 183.47 39.783 183.449 39.8146C183.431 39.8289 183.41 39.839 183.387 39.8441C183.365 39.8492 183.341 39.8492 183.319 39.8441Z" fill="#263238"/>
<path d="M180.918 41.2837C178.912 39.4134 180.847 37.3248 182.098 36.5637C183.472 35.7141 181.401 34.7288 183.089 32.6638C176.245 32.829 177.708 29.6607 174.097 30.0324C172.127 30.233 170.156 28.4925 170.404 25.7136C170.87 20.4626 178.381 19.2767 179.572 21.2473C176.746 21.7488 177.342 23.4834 178.581 23.6073C181.803 23.8728 181.183 25.513 182.894 27.0529C185.325 29.2359 188.316 27.3479 187.939 31.9086C192.718 33.0886 190.069 38.3986 187.036 39.8146C185.082 40.6104 183.02 41.1057 180.918 41.2837Z" fill="#263238"/>
<path d="M186.293 31.8201C186.773 31.8261 187.249 31.7294 187.689 31.5363C188.129 31.3433 188.522 31.0584 188.843 30.7008C189.164 30.3432 189.404 29.9211 189.548 29.4629C189.693 29.0047 189.737 28.5209 189.679 28.0441C191.473 31.4071 189.296 32.4632 186.293 31.8201Z" fill="#263238"/>
<path d="M184.859 42.4755C183.959 43.4002 182.748 43.9592 181.46 44.0449C179.85 44.1039 179.655 42.4755 180.617 41.0949C181.484 39.8323 183.372 38.2806 184.747 38.8883C186.121 39.496 186.027 41.3014 184.859 42.4755Z" fill="#FF8B7B"/>
<path d="M184.711 43.1186C183.933 43.8915 182.806 44.0331 182.204 43.4254C181.602 42.8177 181.75 41.7026 182.534 40.9238C183.319 40.145 184.44 40.0034 185.042 40.6111C185.644 41.2188 185.496 42.3398 184.711 43.1186Z" fill="#263238"/>
<path d="M172.687 44.983C172.53 44.8675 172.408 44.7101 172.335 44.5288C172.263 44.3474 172.242 44.1493 172.277 43.957C172.311 43.7647 172.399 43.5859 172.53 43.441C172.661 43.296 172.829 43.1906 173.017 43.1369C173.205 43.0831 173.404 43.0831 173.592 43.1369C173.78 43.1906 173.949 43.296 174.08 43.4409C174.211 43.5859 174.298 43.7647 174.333 43.957C174.367 44.1493 174.347 44.3474 174.274 44.5287C174.122 44.7969 173.87 44.9947 173.573 45.0796C173.277 45.1645 172.959 45.1299 172.687 44.983Z" fill="#263238"/>
<path d="M176.298 44.6468C175.283 44.6552 174.269 44.5503 173.277 44.3341C173.238 44.3252 173.202 44.3087 173.169 44.2856C173.137 44.2626 173.11 44.2334 173.088 44.1997C173.067 44.166 173.053 44.1285 173.046 44.0893C173.04 44.0501 173.041 44.01 173.05 43.9712C173.059 43.9325 173.075 43.8959 173.098 43.8635C173.121 43.8311 173.151 43.8036 173.184 43.7825C173.218 43.7614 173.256 43.7471 173.295 43.7406C173.334 43.734 173.374 43.7352 173.413 43.7441C176.31 44.4344 180.994 43.9742 182.688 42.3517C182.715 42.324 182.748 42.3021 182.784 42.2871C182.82 42.2721 182.858 42.2644 182.897 42.2644C182.936 42.2644 182.975 42.2721 183.011 42.2871C183.047 42.3021 183.079 42.324 183.107 42.3517C183.134 42.3786 183.156 42.4107 183.171 42.4462C183.186 42.4816 183.193 42.5197 183.193 42.5582C183.193 42.5966 183.186 42.6347 183.171 42.6702C183.156 42.7056 183.134 42.7377 183.107 42.7647C181.803 44.0273 178.941 44.6468 176.298 44.6468Z" fill="#263238"/>
<path d="M176.174 36.3572C176.032 36.7702 175.702 37.0357 175.431 36.9472C175.159 36.8587 175.059 36.4575 175.201 36.0445C175.342 35.6315 175.678 35.366 175.944 35.4545C176.209 35.543 176.316 35.9147 176.174 36.3572Z" fill="#263238"/>
<path d="M171.1 34.5872C170.958 35.0002 170.628 35.2657 170.357 35.1772C170.085 35.0887 169.985 34.6875 170.127 34.2745C170.268 33.8615 170.604 33.596 170.87 33.6845C171.135 33.773 171.265 34.1742 171.1 34.5872Z" fill="#263238"/>
<path d="M172.959 35.9618C171.684 36.6236 170.449 37.3584 169.259 38.1625C169.554 39.1596 171.106 39.5136 171.106 39.5136L172.959 35.9618Z" fill="#FF5652"/>
<path d="M171.69 41.3545C172.156 41.5046 172.648 41.559 173.136 41.5144C173.623 41.4698 174.097 41.3271 174.528 41.0949C174.558 41.0776 174.579 41.0493 174.588 41.0161C174.597 40.9829 174.592 40.9476 174.575 40.9179C174.557 40.8892 174.528 40.8688 174.495 40.8611C174.462 40.8533 174.427 40.8589 174.398 40.8766C173.919 41.1276 173.387 41.2622 172.846 41.2694C172.304 41.2766 171.769 41.1561 171.283 40.9179C171.252 40.9035 171.217 40.9016 171.185 40.9126C171.153 40.9236 171.127 40.9467 171.112 40.9769C171.104 40.9915 171.099 41.0076 171.097 41.0243C171.095 41.0409 171.097 41.0578 171.102 41.0738C171.107 41.0898 171.115 41.1046 171.126 41.1173C171.137 41.1301 171.15 41.1405 171.165 41.148C171.336 41.2275 171.511 41.2965 171.69 41.3545Z" fill="#263238"/>
<path d="M178.652 35.6198C178.695 35.6316 178.739 35.6316 178.782 35.6198C178.814 35.6098 178.844 35.5933 178.87 35.5715C178.896 35.5496 178.918 35.5227 178.933 35.4925C178.949 35.4622 178.958 35.4292 178.96 35.3953C178.962 35.3614 178.958 35.3274 178.947 35.2953C178.83 34.9112 178.622 34.5614 178.339 34.2766C178.056 33.9917 177.708 33.7804 177.325 33.661C177.257 33.6447 177.186 33.6554 177.127 33.6907C177.067 33.7259 177.024 33.783 177.006 33.8498C176.99 33.9147 177 33.9834 177.034 34.0408C177.069 34.0983 177.124 34.1399 177.189 34.1566C177.492 34.2553 177.766 34.4261 177.988 34.6543C178.21 34.8825 178.373 35.1611 178.463 35.4664C178.479 35.5057 178.505 35.5404 178.538 35.5672C178.571 35.594 178.61 35.6121 178.652 35.6198Z" fill="#263238"/>
<path d="M170.144 32.2979C170.181 32.318 170.223 32.3286 170.265 32.3286C170.307 32.3286 170.349 32.318 170.386 32.2979C170.664 32.1365 170.977 32.0438 171.298 32.0274C171.619 32.011 171.94 32.0713 172.233 32.2035C172.293 32.2349 172.364 32.2414 172.429 32.2216C172.494 32.2017 172.548 32.1571 172.581 32.0973C172.599 32.0689 172.61 32.0373 172.615 32.0043C172.619 31.9713 172.617 31.9377 172.608 31.9055C172.6 31.8734 172.584 31.8435 172.563 31.8176C172.542 31.7917 172.516 31.7704 172.487 31.7551C172.115 31.5772 171.706 31.4929 171.295 31.5093C170.883 31.5258 170.482 31.6426 170.127 31.8495C170.086 31.871 170.052 31.9033 170.028 31.9428C170.004 31.9823 169.992 32.0276 169.992 32.0737C169.992 32.1198 170.004 32.165 170.028 32.2045C170.052 32.244 170.086 32.2763 170.127 32.2979H170.144Z" fill="#263238"/>
<path d="M137.753 39.3071L133.665 35.7671L139.057 32.0914C139.057 32.0914 142.373 35.7848 140.745 37.9324L137.753 39.3071Z" fill="#FF8B7B"/>
<path d="M133.187 30.0029L135.281 29.0353C135.686 28.8518 136.143 28.8212 136.568 28.9492C136.994 29.0772 137.358 29.3552 137.594 29.7315L139.057 32.0502L133.665 35.7259L132.243 32.5753C132.029 32.1087 132.009 31.5766 132.186 31.0949C132.362 30.6132 132.722 30.2208 133.187 30.0029Z" fill="#FF8B7B"/>
<path d="M161.713 63.7921C161.492 63.3157 161.18 62.8876 160.793 62.5324C160.406 62.1773 159.953 61.9022 159.459 61.7229C158.966 61.5436 158.442 61.4636 157.917 61.4876C157.393 61.5117 156.878 61.6392 156.403 61.8628L156.22 61.9454L155.323 62.3643L154.35 62.8068C153.689 63.09 153.022 63.3968 152.35 63.6505C151.011 64.2405 149.648 64.7066 148.279 65.1845C146.91 65.6624 145.524 66.0813 144.149 66.453C142.933 66.7834 141.712 67.043 140.485 67.279C139.423 67.0076 138.302 66.6477 137.181 66.2406C135.771 65.7273 134.337 65.1314 132.909 64.506C131.482 63.8806 130.042 63.2198 128.608 62.5472L124.307 60.4999H124.266C123.834 60.2973 123.343 60.2564 122.884 60.3846C122.424 60.5128 122.025 60.8016 121.76 61.1986C121.495 61.5956 121.382 62.0745 121.44 62.5482C121.498 63.0219 121.724 63.4591 122.077 63.7803C123.34 64.919 124.626 65.9338 125.953 66.9427C127.281 67.9516 128.65 68.8956 130.083 69.8042C131.51 70.7317 132.983 71.5864 134.496 72.3648C136.098 73.2026 137.768 73.9033 139.488 74.4593C139.836 74.5624 140.2 74.6004 140.562 74.5714H140.809C142.49 74.4511 144.163 74.2344 145.819 73.9224C146.65 73.7808 147.453 73.5861 148.273 73.4091C149.093 73.2321 149.884 73.002 150.68 72.7601C152.279 72.3058 153.843 71.763 155.4 71.1553C156.167 70.8485 156.94 70.5653 157.695 70.1818C158.073 70.0048 158.456 69.8337 158.834 69.6449C159.212 69.4561 159.566 69.2732 160.014 69.0195C160.914 68.5324 161.592 67.7182 161.908 66.7453C162.224 65.7724 162.154 64.7151 161.713 63.7921Z" fill="#FF8B7B"/>
<path d="M161.312 58.7773C156.463 60.4685 151.733 62.4809 147.152 64.8012C148.329 68.832 150.528 72.4902 153.536 75.4212C153.536 75.4212 156.09 75.2914 161.277 71.3738C167.082 67.0373 167.212 56.8539 161.312 58.7773Z" fill="#FFFF00"/>
<path d="M123.222 64.3173L117.953 63.8099L120.142 57.8273C120.142 57.8273 124.862 58.8775 124.797 61.5089L123.222 64.3173Z" fill="#FF8B7B"/>
<path d="M114.318 59.5383L115.434 57.5854C115.647 57.2069 115.992 56.9202 116.404 56.7798C116.815 56.6394 117.263 56.6553 117.664 56.8243L120.142 57.8273L117.953 63.8099L115.05 62.1166C114.613 61.8697 114.291 61.4605 114.154 60.9778C114.017 60.4951 114.076 59.9779 114.318 59.5383Z" fill="#FF8B7B"/>
<path d="M241.251 113.942H53.7491C53.3454 113.942 52.9582 113.782 52.6727 113.496C52.3872 113.211 52.2269 112.824 52.2269 112.42C52.2261 112.22 52.2649 112.021 52.341 111.836C52.4172 111.65 52.5292 111.482 52.6706 111.34C52.812 111.198 52.9801 111.085 53.1652 111.008C53.3502 110.931 53.5487 110.892 53.7491 110.892H241.251C241.451 110.892 241.65 110.931 241.835 111.008C242.02 111.085 242.188 111.198 242.33 111.34C242.471 111.482 242.583 111.65 242.659 111.836C242.735 112.021 242.774 112.22 242.773 112.42C242.773 112.824 242.613 113.211 242.327 113.496C242.042 113.782 241.655 113.942 241.251 113.942Z" fill="#FFFF00"/>
<path d="M208.701 99.5874H201.308C200.878 99.5874 200.529 99.9361 200.529 100.366V110.119C200.529 110.549 200.878 110.898 201.308 110.898H208.701C209.131 110.898 209.48 110.549 209.48 110.119V100.366C209.48 99.9361 209.131 99.5874 208.701 99.5874Z" fill="#FFFF00"/>
<path d="M209.48 109.299C208.676 109.3 207.891 109.063 207.223 108.618C206.554 108.173 206.033 107.539 205.725 106.797C205.417 106.056 205.336 105.239 205.492 104.452C205.648 103.664 206.034 102.94 206.601 102.372C207.169 101.803 207.892 101.416 208.68 101.259C209.467 101.102 210.284 101.182 211.026 101.489C211.768 101.796 212.402 102.316 212.848 102.984C213.295 103.652 213.533 104.437 213.533 105.24C213.531 106.315 213.104 107.346 212.344 108.106C211.585 108.867 210.555 109.296 209.48 109.299ZM209.48 102.367C208.91 102.365 208.352 102.533 207.878 102.849C207.403 103.165 207.033 103.615 206.815 104.141C206.596 104.668 206.539 105.247 206.649 105.806C206.76 106.365 207.035 106.879 207.438 107.282C207.841 107.685 208.354 107.959 208.913 108.07C209.472 108.181 210.052 108.123 210.578 107.905C211.105 107.686 211.554 107.316 211.87 106.842C212.186 106.367 212.354 105.81 212.353 105.24C212.351 104.478 212.048 103.748 211.51 103.21C210.971 102.671 210.241 102.368 209.48 102.367Z" fill="#FFFF00"/>
<path opacity="0.3" d="M241.251 113.942H189.136C188.732 113.942 188.344 113.782 188.058 113.497C187.772 113.211 187.61 112.824 187.608 112.42C187.608 112.015 187.769 111.626 188.056 111.339C188.342 111.053 188.731 110.892 189.136 110.892H241.251C241.451 110.892 241.65 110.931 241.835 111.008C242.02 111.085 242.188 111.198 242.33 111.34C242.471 111.482 242.583 111.65 242.659 111.836C242.735 112.021 242.774 112.22 242.773 112.42C242.773 112.824 242.613 113.211 242.327 113.496C242.042 113.782 241.655 113.942 241.251 113.942Z" fill="black"/>
<path d="M218.07 113.942H212.317V159.962H218.07V113.942Z" fill="#263238"/>
<path d="M223.887 113.942H234.861V115.04C234.861 115.375 234.728 115.696 234.492 115.933C234.255 116.169 233.934 116.302 233.599 116.302H225.15C224.815 116.302 224.494 116.169 224.257 115.933C224.02 115.696 223.887 115.375 223.887 115.04V113.942Z" fill="#263238"/>
<path d="M219.492 148.558H210.896V194.578H219.492V148.558Z" fill="#263238"/>
<path d="M220.937 176.919H209.45V222.939H220.937V176.919Z" fill="#263238"/>
<path d="M227.616 222.939H202.771C202.771 222.258 203.042 221.605 203.523 221.124C204.004 220.643 204.657 220.372 205.338 220.372H225.05C225.73 220.372 226.383 220.643 226.864 221.124C227.346 221.605 227.616 222.258 227.616 222.939Z" fill="#263238"/>
<path d="M82.6826 113.942H76.9301V159.962H82.6826V113.942Z" fill="#263238"/>
<path d="M84.1046 148.558H75.5083V194.578H84.1046V148.558Z" fill="#263238"/>
<path d="M85.55 176.919H74.0627V222.939H85.55V176.919Z" fill="#263238"/>
<path d="M92.2289 222.939H67.384C67.384 222.258 67.6544 221.605 68.1357 221.124C68.617 220.643 69.2698 220.372 69.9505 220.372H89.6801C90.3607 220.372 91.0135 220.643 91.4948 221.124C91.9762 221.605 92.2466 222.258 92.2466 222.939H92.2289Z" fill="#263238"/>
<path d="M151.199 109.057H80.5292C80.2861 109.059 80.0535 109.156 79.8821 109.329C79.7108 109.501 79.6146 109.734 79.6147 109.978C79.6162 110.22 79.713 110.451 79.8842 110.622C80.0554 110.794 80.2871 110.89 80.5292 110.892H151.199C151.442 110.892 151.676 110.796 151.848 110.625C152.021 110.453 152.118 110.221 152.12 109.978C152.12 109.733 152.023 109.499 151.85 109.327C151.678 109.154 151.443 109.057 151.199 109.057Z" fill="#FFFF00"/>
<path opacity="0.3" d="M151.199 109.057H80.5292C80.2861 109.059 80.0535 109.156 79.8821 109.329C79.7108 109.501 79.6146 109.734 79.6147 109.978C79.6162 110.22 79.713 110.451 79.8842 110.622C80.0554 110.794 80.2871 110.89 80.5292 110.892H151.199C151.442 110.892 151.676 110.796 151.848 110.625C152.021 110.453 152.118 110.221 152.12 109.978C152.12 109.733 152.023 109.499 151.85 109.327C151.678 109.154 151.443 109.057 151.199 109.057Z" fill="black"/>
<path d="M126.526 76.1056H76.3756C76.0455 76.0977 75.7179 76.1634 75.4164 76.2978C75.1149 76.4323 74.8471 76.6322 74.6324 76.883C74.4178 77.1338 74.2617 77.4292 74.1754 77.7479C74.0891 78.0665 74.0748 78.4004 74.1336 78.7252L78.2636 107.358C78.3843 108.073 78.7487 108.725 79.2949 109.202C79.8412 109.68 80.5357 109.954 81.2608 109.978H131.411C131.741 109.985 132.068 109.92 132.37 109.785C132.671 109.651 132.939 109.451 133.154 109.2C133.369 108.949 133.525 108.654 133.611 108.335C133.697 108.017 133.712 107.683 133.653 107.358L129.523 78.7252C129.402 78.0099 129.038 77.3583 128.491 76.8808C127.945 76.4034 127.251 76.1295 126.526 76.1056Z" fill="#FFFF00"/>
<path opacity="0.2" d="M110.967 80.0586C111.201 79.6597 111.325 79.2062 111.328 78.7438C111.33 78.2815 111.21 77.8267 110.98 77.4256C110.75 77.0244 110.418 76.6911 110.018 76.4593C109.618 76.2276 109.164 76.1055 108.702 76.1056H76.3756C76.0455 76.0977 75.7179 76.1634 75.4164 76.2978C75.1149 76.4323 74.8471 76.6322 74.6324 76.883C74.4178 77.1338 74.2617 77.4292 74.1754 77.7479C74.0891 78.0665 74.0748 78.4004 74.1336 78.7252L78.2636 107.358C78.3843 108.073 78.7487 108.725 79.2949 109.202C79.8412 109.68 80.5357 109.954 81.2608 109.978H90.5828C91.46 109.977 92.3218 109.747 93.0826 109.31C93.8433 108.873 94.4765 108.245 94.9193 107.488L110.967 80.0586Z" fill="white"/>
</svg>
