<svg width="267" height="209" viewBox="0 0 267 209" fill="none" xmlns="http://www.w3.org/2000/svg">
<path d="M105.111 87.6471L119.48 84.8759L147.044 91.2005L161.015 94.1133L161.217 113.202L130.052 118.94L109.022 112.709L101.073 101.011L105.111 87.6471Z" fill="#FFBE9D"/>
<path d="M94.9031 89.5485L108.463 86.3525C108.463 86.3525 118.051 116.02 141.71 114.719C160.994 113.674 161.015 94.1133 161.015 94.1133L175.113 96.6013C175.113 96.6013 181.027 132.398 174.547 157.508C169.153 178.41 164.366 207.052 164.366 207.052H70.7037L94.9031 89.5485Z" fill="#FFFF00"/>
<path d="M232.298 181.269C232.298 181.269 193.669 113.593 186.718 104.908C179.105 95.401 173.03 96.5001 173.03 96.5001L168.944 142.087L201.787 188.685L209.616 191.511L232.298 181.269Z" fill="#FFFF00"/>
<path d="M96.5213 89.1709C96.5213 89.1709 74.5673 90.924 66.6918 126.93C63.1317 143.2 58.6007 162.268 57.3331 175.079C56.3891 184.377 62.1271 194.046 71.3982 195.233L83.036 197.39C86.1106 197.961 89.287 197.331 91.9111 195.63C94.5352 193.929 96.4072 191.287 97.1416 188.247L101.073 171.97L90.6012 168.451L93.0219 119.965L96.5213 89.1709Z" fill="#FFFF00"/>
<path d="M176.907 121.765C176.958 121.927 176.992 122.094 177.008 122.264C177.069 122.628 177.136 123.113 177.231 123.713C177.278 124.03 177.325 124.388 177.386 124.765C177.446 125.143 177.467 125.568 177.507 126.019C177.602 126.916 177.709 127.941 177.757 129.081C177.919 131.745 177.937 134.417 177.811 137.084C177.653 140.348 177.329 143.603 176.84 146.834C176.334 150.273 175.7 153.523 175.06 156.462C174.419 159.402 173.778 162.039 173.232 164.25C172.686 166.462 172.207 168.235 171.884 169.462C171.722 170.049 171.594 170.521 171.493 170.871C171.452 171.037 171.4 171.199 171.338 171.357C171.351 171.188 171.381 171.021 171.425 170.858C171.506 170.494 171.621 170.022 171.756 169.429L172.996 164.163C173.515 161.944 174.136 159.308 174.749 156.368C175.363 153.428 175.997 150.185 176.502 146.753C177.008 143.321 177.352 140.01 177.494 137.037C177.635 134.063 177.649 131.333 177.494 129.067C177.494 127.934 177.372 126.909 177.298 126.006C177.264 125.561 177.231 125.143 177.204 124.752C177.177 124.361 177.116 124.024 177.082 123.7C177.015 123.1 176.968 122.614 176.927 122.25C176.91 122.089 176.903 121.927 176.907 121.765Z" fill="#263238"/>
<path d="M102.097 173.71C102.051 173.615 102.013 173.515 101.983 173.413C101.915 173.191 101.821 172.908 101.706 172.544L101.275 171.148C101.153 170.513 100.886 169.915 100.493 169.402C99.9153 168.848 99.2254 168.425 98.4699 168.161C97.5816 167.825 96.6656 167.568 95.7324 167.392C93.5076 166.98 91.2522 166.754 88.9898 166.718H88.8077V166.543L90.79 153.617C92.0644 145.479 93.2241 138.109 94.067 132.715C94.5052 130.072 94.8559 127.921 95.1053 126.397C95.2267 125.676 95.3278 125.102 95.402 124.678C95.402 124.502 95.4627 124.354 95.4897 124.233C95.4944 124.181 95.5081 124.131 95.5301 124.084C95.5405 124.135 95.5405 124.188 95.5301 124.239C95.5301 124.361 95.5301 124.509 95.4762 124.691C95.4222 125.116 95.3413 125.689 95.2469 126.417C95.0244 127.948 94.7075 130.105 94.3232 132.755C93.5006 138.149 92.3813 145.506 91.1407 153.658C90.4125 158.31 89.7315 162.713 89.1179 166.576L88.9628 166.394C91.2526 166.453 93.5332 166.708 95.7796 167.156C96.7258 167.345 97.6532 167.618 98.5508 167.972C99.3373 168.26 100.049 168.721 100.634 169.321C100.875 169.591 101.055 169.911 101.16 170.258L101.41 171.155C101.565 171.701 101.693 172.173 101.801 172.564C101.909 172.955 101.976 173.238 102.03 173.447C102.061 173.532 102.083 173.621 102.097 173.71Z" fill="#263238"/>
<path d="M71.8567 179.212C71.8783 178.905 71.9372 178.602 72.032 178.309C72.2441 177.496 72.5284 176.704 72.8816 175.942C74.0314 173.395 75.8239 171.192 78.083 169.547C80.3421 167.903 82.99 166.874 85.7668 166.563C86.5988 166.461 87.4382 166.434 88.275 166.482C88.5841 166.486 88.8917 166.524 89.192 166.597C88.0652 166.603 86.9397 166.673 85.8207 166.806C83.1071 167.18 80.528 168.219 78.313 169.831C76.0979 171.442 74.3155 173.576 73.1243 176.043C72.6456 177.076 72.2224 178.134 71.8567 179.212Z" fill="#263238"/>
<path d="M76.9339 161.29C77.1056 161.247 77.2831 161.231 77.4598 161.243C77.944 161.234 78.4283 161.256 78.9095 161.31C80.5016 161.471 82.0619 161.861 83.5417 162.47C85.0211 163.082 86.406 163.902 87.6547 164.904C88.0332 165.204 88.3914 165.528 88.7268 165.875C88.9628 166.125 89.0909 166.266 89.0707 166.286C89.0504 166.307 88.4773 165.814 87.5064 165.1C84.9603 163.234 81.998 162.017 78.8758 161.553C77.6824 161.378 76.9339 161.351 76.9339 161.29Z" fill="#263238"/>
<path d="M99.6566 114.719C99.6125 114.399 99.5967 114.077 99.6094 113.755C99.6094 113.134 99.5689 112.244 99.488 111.145C99.2856 108.278 98.7932 105.438 98.0181 102.67C97.2321 99.9057 96.1728 97.2269 94.8558 94.6729C94.3434 93.6952 93.9119 92.9131 93.595 92.3872C93.4173 92.1181 93.2639 91.8338 93.1365 91.5376C93.3516 91.7773 93.5435 92.037 93.7096 92.313C94.0669 92.8254 94.5322 93.5873 95.0581 94.5583C97.8643 99.6508 99.4565 105.323 99.7105 111.132C99.7577 112.237 99.751 113.154 99.7105 113.755C99.7245 114.077 99.7064 114.4 99.6566 114.719Z" fill="#263238"/>
<g opacity="0.3">
<path d="M175.909 151.965C181.505 142.478 181.627 130.153 176.738 120.275C178.311 130.799 177.973 141.52 175.741 151.925" fill="black"/>
</g>
<g opacity="0.3">
<path d="M126.081 162.693C121.833 163.94 115.967 164.243 111.807 162.693C115.05 167.298 121.3 168.963 126.722 167.466C132.143 165.97 137.146 160.542 137.564 154.925C134.941 158.472 130.336 161.465 126.081 162.693Z" fill="black"/>
</g>
<path d="M141.71 147.373C141.691 147.503 141.657 147.629 141.609 147.751C141.528 147.994 141.434 148.365 141.245 148.81C140.754 150.098 140.142 151.338 139.418 152.511C138.351 154.262 137.061 155.866 135.581 157.285C131.951 160.819 127.265 163.068 122.238 163.691C120.205 163.954 118.148 163.954 116.115 163.691C114.743 163.52 113.389 163.224 112.07 162.807C111.598 162.666 111.254 162.511 111.011 162.423C110.888 162.381 110.768 162.329 110.654 162.268C111.144 162.378 111.627 162.513 112.104 162.672C117.812 164.26 123.901 163.755 129.27 161.25C134.586 158.637 138.786 154.2 141.104 148.749C141.495 147.872 141.677 147.36 141.71 147.373Z" fill="#263238"/>
<path d="M94.3501 194.578C94.3501 194.578 94.3029 194.653 94.1816 194.761C94.0118 194.929 93.8292 195.085 93.6354 195.226C92.9301 195.752 92.1477 196.166 91.3159 196.453C90.0793 196.864 88.7889 197.091 87.4861 197.127C85.9108 197.177 84.334 197.121 82.7663 196.959C79.395 196.669 76.4012 196.177 74.2368 195.792C73.1513 195.597 72.2747 195.428 71.6746 195.3C71.355 195.257 71.0409 195.18 70.7374 195.071C71.0586 195.076 71.3789 195.107 71.6949 195.165L74.2773 195.543C76.4484 195.873 79.4556 196.318 82.8 196.608C84.3678 196.77 85.944 196.835 87.5198 196.804C88.796 196.777 90.0623 196.573 91.2822 196.197C92.3802 195.814 93.4144 195.269 94.3501 194.578Z" fill="#263238"/>
<path d="M170.502 17.173L173.273 14.476C176.961 16.0807 178.667 20.3623 179.294 24.3404C179.921 28.3186 179.827 32.499 181.519 36.1535C182.814 38.9652 185.167 41.5476 184.89 44.656C184.627 47.589 181.971 49.9625 181.957 52.909C181.957 55.7476 184.317 57.9255 185.693 60.4068C188.477 65.4301 190.284 85.9816 188.828 91.5443C176.577 90.4857 154.879 89.1776 142.621 86.3592C145.85 65.2413 159.45 35.4388 170.502 17.173Z" fill="#263238"/>
<path d="M175.983 35.9985C176.833 21.6434 166.409 8.50874 151.878 6.77588C136.458 4.94188 122.818 15.9863 121.536 31.0089L117.922 91.6522C117.856 92.8242 118.184 93.9847 118.853 94.9493C122.413 100.155 128.859 104.227 134.624 105.03C140.2 105.805 145.857 104.355 150.604 101.712C151.391 101.267 152.048 100.623 152.508 99.8444C152.969 99.0658 153.216 98.18 153.227 97.2756L153.476 83.7026C153.475 83.6909 153.477 83.679 153.481 83.6679C153.485 83.6568 153.491 83.6467 153.5 83.6384C153.508 83.63 153.518 83.6236 153.529 83.6196C153.54 83.6155 153.552 83.614 153.564 83.615C154.834 83.7108 156.111 83.6746 157.374 83.5071C160.961 82.6306 170.11 79.1109 173.185 65.6796C174.21 61.2294 175.235 48.587 175.983 35.9985Z" fill="#FFBE9D"/>
<path d="M156.039 55.8286C156.039 55.6937 157.542 55.5454 159.976 55.4105C160.59 55.4105 161.176 55.3094 161.325 54.9048C161.415 54.2863 161.312 53.6549 161.028 53.0978L159.518 48.378C157.428 41.6893 155.958 36.2075 156.227 36.1333C156.497 36.0592 158.419 41.4061 160.509 48.0948C161.008 49.7467 161.487 51.3178 161.945 52.8146C162.134 53.4889 162.478 54.3115 162.107 55.1948C162.004 55.4007 161.855 55.5801 161.671 55.7192C161.487 55.8583 161.274 55.9534 161.048 55.9971C160.704 56.0656 160.353 56.0905 160.003 56.0713C157.549 56.0578 156.045 55.9634 156.039 55.8286Z" fill="#263238"/>
<path d="M172.019 41.0757C171.756 41.3656 170.164 40.0306 167.885 39.9631C165.606 39.8957 163.907 41.0892 163.664 40.779C163.543 40.6374 163.82 40.1047 164.561 39.5518C165.541 38.8476 166.726 38.4872 167.933 38.527C169.137 38.5685 170.293 39.0124 171.216 39.7878C171.924 40.3947 172.187 40.9476 172.019 41.0757Z" fill="#263238"/>
<path d="M148.864 41.6556C148.554 41.9455 146.896 40.4419 144.407 40.2261C141.919 40.0104 139.984 41.1499 139.735 40.8127C139.613 40.6576 139.951 40.1385 140.793 39.5856C141.923 38.9164 143.236 38.6236 144.542 38.7495C145.85 38.8655 147.085 39.4025 148.062 40.2801C148.797 40.9341 149.013 41.5274 148.864 41.6556Z" fill="#263238"/>
<path d="M153.476 83.6083C153.476 83.6083 144.185 83.7094 133.073 76.0767C133.073 76.0767 135.945 88.3348 153.402 87.9505L153.476 83.6083Z" fill="#EB996E"/>
<path d="M154.656 61.4249C154.233 60.828 153.667 60.3468 153.01 60.0252C152.352 59.7036 151.625 59.552 150.894 59.5842C150.366 59.5919 149.845 59.7058 149.362 59.9189C148.879 60.132 148.444 60.4401 148.082 60.8249C147.737 61.1933 147.516 61.6605 147.449 62.1611C147.383 62.6616 147.474 63.1705 147.711 63.6163C148.298 64.5535 149.633 64.8569 150.8 64.6142C151.955 64.2981 153.036 63.7574 153.982 63.0229C154.263 62.8433 154.51 62.6149 154.71 62.3487C154.805 62.2244 154.861 62.0747 154.87 61.9186C154.88 61.7625 154.843 61.6071 154.764 61.4721" fill="#EB996E"/>
<path d="M148.891 56.9547C149.282 56.9547 149.127 59.5169 151.231 61.4857C153.335 63.4546 156.119 63.3602 156.119 63.7175C156.119 63.8861 155.445 64.176 154.299 64.1221C152.779 64.0377 151.336 63.4302 150.213 62.4027C149.144 61.4248 148.5 60.0669 148.419 58.6201C148.386 57.548 148.716 56.9547 148.891 56.9547Z" fill="#263238"/>
<path d="M149.262 32.2563C148.979 32.8766 146.612 32.3979 143.787 32.5125C140.962 32.6272 138.636 33.1868 138.299 32.6137C138.157 32.3237 138.589 31.7574 139.553 31.2045C140.835 30.5366 142.251 30.1656 143.696 30.1189C145.141 30.0722 146.578 30.3511 147.9 30.9348C148.878 31.4202 149.357 31.9596 149.262 32.2563Z" fill="#263238"/>
<path d="M172.511 32.762C172.025 33.3014 170.104 32.762 167.791 32.762C165.478 32.762 163.536 33.1463 163.071 32.5867C162.869 32.317 163.172 31.7776 164.022 31.2382C165.198 30.6218 166.511 30.3133 167.839 30.3416C169.166 30.3699 170.465 30.734 171.614 31.4C172.45 31.9462 172.727 32.499 172.511 32.762Z" fill="#263238"/>
<path d="M153.982 3.74171C152.728 1.61104 150.402 0.640094 147.799 0.249021C137.173 -1.36247 125.319 5.03629 119.365 13.977C113.412 22.9178 113.095 36.2615 117.45 46.0787L124.078 41.9388C137.382 36.4502 146.774 23.6325 155.331 10.39C156.524 8.58967 155.095 5.59594 153.982 3.74171Z" fill="#263238"/>
<path d="M170.353 9.58755C165.91 4.53057 162.68 -0.526408 153.456 3.00673C152.108 5.58916 154.805 8.94025 157.124 10.8956C160.495 13.768 163.388 15.7031 165.586 17.7596C170.023 21.9063 175.066 35.8569 175.505 43.4693C175.505 43.948 176.347 36.9357 176.853 36.8615C177.473 36.7671 179.975 33.706 179.631 29.5255C178.444 15.2379 174.797 14.6378 170.353 9.58755Z" fill="#263238"/>
<path d="M147.826 0.249011C148.519 0.113839 149.236 0.174556 149.896 0.424326C151.528 0.924937 152.983 1.88178 154.09 3.18206C154.406 3.5476 154.686 3.94275 154.926 4.36202C155.136 4.76708 155.298 5.1946 155.412 5.63638C155.652 6.34866 155.835 7.07926 155.958 7.821C156.14 9.12233 155.83 9.91121 155.762 9.89099C155.695 9.87076 155.796 9.09536 155.513 7.90191C155.325 7.19582 155.1 6.50032 154.838 5.81844C154.719 5.4198 154.561 5.03367 154.366 4.66544C154.138 4.279 153.877 3.91348 153.584 3.57314C152.54 2.36367 151.219 1.42449 149.734 0.835628C148.588 0.424327 147.813 0.356894 147.826 0.249011Z" fill="#455A64"/>
<path d="M169.915 45.4921C169.916 46.0093 169.718 46.5072 169.364 46.8834C169.009 47.2596 168.523 47.4856 168.007 47.5149C167.75 47.5389 167.492 47.5115 167.246 47.4343C167 47.357 166.773 47.2315 166.576 47.0651C166.379 46.8987 166.218 46.6947 166.101 46.4652C165.985 46.2356 165.915 45.985 165.896 45.7281C165.883 45.2028 166.075 44.6931 166.431 44.3067C166.787 43.9204 167.28 43.6878 167.804 43.6581C168.065 43.6332 168.328 43.6615 168.577 43.7412C168.826 43.821 169.056 43.9506 169.253 44.1222C169.451 44.2937 169.611 44.5036 169.725 44.7392C169.839 44.9747 169.903 45.2309 169.915 45.4921Z" fill="#263238"/>
<path d="M147.705 45.6001C147.718 46.1254 147.526 46.6351 147.17 47.0215C146.814 47.4078 146.321 47.6404 145.796 47.67C145.54 47.695 145.282 47.6685 145.036 47.592C144.791 47.5155 144.563 47.3907 144.366 47.2248C144.169 47.0589 144.008 46.8554 143.891 46.6261C143.774 46.3969 143.705 46.1466 143.686 45.89C143.671 45.3635 143.862 44.852 144.219 44.4642C144.575 44.0764 145.068 43.8429 145.594 43.8133C145.851 43.7883 146.11 43.8151 146.356 43.8919C146.602 43.9688 146.83 44.0943 147.027 44.2608C147.224 44.4274 147.385 44.6318 147.501 44.8618C147.618 45.0918 147.687 45.3429 147.705 45.6001Z" fill="#263238"/>
<path d="M86.5894 62.4768C87.8435 60.4136 89.2864 58.4717 91.5789 57.6154C93.8714 56.7591 96.4741 56.2669 98.2744 54.5947C101.1 51.9988 100.971 47.6835 100.715 43.9211C100.459 40.1587 100.392 35.8299 103.277 33.3014C105.691 31.191 109.528 31.0022 111.618 28.5816C113.014 26.9701 113.29 24.745 113.776 22.6885C115.124 17.1798 118.138 7.55804 134.374 2.02234L120.013 56.5973C121.085 56.9007 123.647 59.3415 123.789 60.9935C123.917 62.5375 123.249 64.1018 123.236 65.6526C123.236 67.5473 125.299 68.6801 126.607 70.0825C128.266 71.8693 128.778 74.445 128.522 76.8252C127.99 80.0782 127.12 83.2667 125.926 86.339C112.602 84.9905 93.1567 84.559 83.0023 76.0632C81.1616 74.5259 83.7979 67.0686 86.5894 62.4768Z" fill="#263238"/>
<path d="M124.105 41.9388C123.856 41.8039 114.045 37.8932 113.418 48.2431C112.791 58.5931 123.29 57.0558 123.323 56.7658C123.357 56.4759 124.105 41.9388 124.105 41.9388Z" fill="#FFBE9D"/>
<path d="M120.41 52.6663C120.363 52.6258 120.222 52.7809 119.905 52.8955C119.466 53.0559 118.982 53.039 118.556 52.8483C117.491 52.3763 116.675 50.5895 116.736 48.7286C116.77 47.8419 117 46.9737 117.41 46.1866C117.528 45.8704 117.719 45.5872 117.969 45.3607C118.219 45.1342 118.52 44.9712 118.846 44.8853C119.056 44.8432 119.275 44.8762 119.463 44.9784C119.652 45.0807 119.798 45.2457 119.878 45.4449C119.999 45.7416 119.918 45.9439 119.972 45.9641C120.026 45.9843 120.208 45.8023 120.148 45.3707C120.109 45.1103 119.98 44.8718 119.783 44.6965C119.513 44.4635 119.162 44.3471 118.806 44.3728C118.377 44.4298 117.97 44.5962 117.624 44.856C117.278 45.1158 117.005 45.4602 116.83 45.8562C116.337 46.7258 116.064 47.7025 116.035 48.7016C115.974 50.7851 116.918 52.7944 118.388 53.3136C118.659 53.4123 118.95 53.4479 119.237 53.4175C119.525 53.3871 119.801 53.2916 120.046 53.1383C120.377 52.909 120.444 52.6865 120.41 52.6663Z" fill="#EB996E"/>
<path d="M160.819 44.6425C160.874 43.8647 160.984 43.0918 161.149 42.3298C161.461 41.0547 162.036 39.8586 162.836 38.818C163.636 37.7774 164.645 36.9152 165.797 36.2864C166.949 35.6576 168.22 35.276 169.528 35.166C170.836 35.0561 172.153 35.2202 173.394 35.6478C174.249 35.9361 175.054 36.3546 175.781 36.8885C176.558 37.4253 177.241 38.0858 177.804 38.8439C179.012 40.4259 179.681 42.3536 179.713 44.3439C179.744 46.3343 179.137 48.2823 177.979 49.9018C177.445 50.6759 176.789 51.3589 176.037 51.9246C175.329 52.483 174.537 52.9266 173.691 53.2394C172.126 53.842 170.429 54.0143 168.775 53.7383C167.333 53.5004 165.968 52.9251 164.79 52.0594C163.067 50.8053 161.815 49.0074 161.237 46.9553C161.051 46.1965 160.916 45.4261 160.833 44.6493C160.83 44.7009 160.83 44.7527 160.833 44.8043C160.833 44.9325 160.833 45.0808 160.833 45.2629C160.838 45.5094 160.863 45.7551 160.907 45.9978C160.944 46.3326 161.007 46.664 161.096 46.989C161.637 49.1001 162.886 50.9615 164.635 52.2617C165.931 53.2309 167.45 53.8567 169.052 54.0807C170.654 54.3047 172.287 54.1196 173.799 53.5428C175.593 52.8647 177.144 51.6676 178.256 50.1041C179.458 48.4263 180.089 46.4066 180.056 44.3428C180.024 42.279 179.328 40.2803 178.074 38.6416C177.489 37.86 176.784 37.1771 175.983 36.6188C175.236 36.0821 174.41 35.6637 173.536 35.3781C172.007 34.8499 170.37 34.7169 168.776 34.9916C167.182 35.2663 165.683 35.9397 164.42 36.9492C162.709 38.306 161.518 40.2111 161.048 42.3433C160.971 42.6717 160.917 43.0052 160.887 43.3412C160.853 43.587 160.838 43.8349 160.839 44.0829C160.839 44.2649 160.839 44.4133 160.839 44.5346C160.831 44.5703 160.824 44.6063 160.819 44.6425Z" fill="#455A64"/>
<path d="M134.766 45.0605C134.82 44.283 134.928 43.5102 135.089 42.7478C135.596 40.6795 136.784 38.8416 138.46 37.529C139.611 36.6268 140.958 36.0078 142.391 35.722C144.036 35.397 145.737 35.5156 147.32 36.0658C148.174 36.3569 148.979 36.7752 149.707 37.3065C150.482 37.8451 151.165 38.5054 151.73 39.2618C152.937 40.8429 153.605 42.7689 153.638 44.7575C153.671 46.7462 153.066 48.693 151.912 50.313C151.375 51.0869 150.717 51.7698 149.963 52.3358C149.255 52.8945 148.463 53.3382 147.617 53.6506C146.053 54.2533 144.355 54.4256 142.702 54.1496C141.262 53.9118 139.898 53.3365 138.723 52.4707C136.998 51.2165 135.744 49.4189 135.163 47.3665C134.977 46.608 134.845 45.8375 134.766 45.0605C134.758 45.1119 134.758 45.1642 134.766 45.2156C134.766 45.337 134.766 45.492 134.766 45.6741C134.765 45.9206 134.788 46.1667 134.833 46.409C134.869 46.7445 134.935 47.0761 135.028 47.4002C135.564 49.5139 136.815 51.377 138.568 52.6729C139.761 53.5687 141.146 54.1736 142.614 54.4395C144.319 54.7334 146.072 54.5658 147.691 53.9541C149.488 53.281 151.041 52.0828 152.148 50.5153C153.35 48.8375 153.982 46.8178 153.949 44.754C153.916 42.6902 153.221 40.6916 151.966 39.0528C150.806 37.5243 149.217 36.3764 147.401 35.7557C145.763 35.196 144.005 35.0865 142.311 35.4388C140.506 35.8098 138.846 36.6935 137.53 37.9839C136.215 39.2742 135.299 40.9166 134.894 42.7141C134.81 43.0412 134.756 43.3752 134.732 43.712C134.692 43.9571 134.676 44.2055 134.685 44.4537V44.9054C134.7 44.9624 134.728 45.0153 134.766 45.0605Z" fill="#455A64"/>
<path d="M153.375 44.3526C153.429 44.3863 153.699 43.9481 154.326 43.4424C155.13 42.7757 156.136 42.4025 157.181 42.3841C158.225 42.3658 159.244 42.7033 160.071 43.3412C160.745 43.8199 161.001 44.2515 161.048 44.211C160.881 43.7851 160.595 43.4156 160.226 43.1457C159.381 42.4064 158.292 42.0085 157.169 42.0297C156.047 42.0509 154.973 42.4897 154.157 43.2603C153.799 43.5438 153.528 43.9223 153.375 44.3526Z" fill="#455A64"/>
<path d="M121.732 41.2779C122.353 41.4747 122.992 41.6058 123.64 41.669C124.834 41.8578 126.486 42.0331 128.306 42.1949L132.979 42.613C133.619 42.7116 134.266 42.7612 134.914 42.7613C134.293 42.5628 133.654 42.4295 133.006 42.3635C131.819 42.1815 130.167 42.0061 128.34 41.8443L123.674 41.4263C123.032 41.3235 122.382 41.2739 121.732 41.2779Z" fill="#455A64"/>
<path d="M175.869 50.4749C176.71 49.5026 177.393 48.4035 177.891 47.2182C178.283 45.991 178.481 44.7103 178.478 43.4221C178.628 43.7849 178.697 44.1761 178.68 44.5684C178.704 45.5128 178.549 46.4532 178.222 47.3396C177.896 48.2261 177.401 49.0412 176.765 49.74C176.273 50.2659 175.896 50.5086 175.869 50.4749Z" fill="white"/>
<path d="M177.5 39.8215C177.554 39.7406 177.939 39.9361 178.175 40.3946C178.411 40.8531 178.309 41.2712 178.215 41.2644C178.121 41.2577 178.04 40.9138 177.858 40.543C177.676 40.1721 177.44 39.8957 177.5 39.8215Z" fill="white"/>
<path d="M152.067 48.4319C152.013 48.4319 152.202 47.8925 152.357 47.0227C152.755 44.7412 152.317 42.3929 151.123 40.4082C150.671 39.653 150.307 39.235 150.348 39.1945C150.745 39.4844 151.08 39.8513 151.332 40.2733C152.009 41.2537 152.475 42.3644 152.699 43.5346C152.923 44.7047 152.901 45.9088 152.634 47.0699C152.539 47.5575 152.346 48.0208 152.067 48.4319Z" fill="white"/>
<path d="M116.223 56.6242C116.223 56.6242 116.082 56.8265 115.879 57.1973C115.589 57.7241 115.436 58.3153 115.434 58.9167C115.424 59.3527 115.503 59.7862 115.668 60.19C115.833 60.5938 116.079 60.9592 116.392 61.2631C116.769 61.638 117.23 61.9184 117.736 62.0813C118.242 62.2441 118.78 62.285 119.305 62.2004C119.826 62.093 120.316 61.866 120.735 61.5372C121.154 61.2084 121.49 60.7868 121.719 60.3057C121.903 59.9104 122.005 59.4817 122.017 59.0457C122.03 58.6098 121.954 58.1758 121.793 57.7705C121.58 57.2095 121.233 56.7093 120.781 56.314C120.458 56.0376 120.242 55.923 120.255 55.896C120.478 55.9531 120.685 56.0591 120.862 56.2062C121.377 56.5802 121.778 57.0888 122.022 57.6761C122.217 58.1107 122.318 58.5818 122.318 59.0583C122.318 59.5348 122.217 60.0059 122.022 60.4405C121.79 60.9824 121.427 61.4582 120.966 61.8252C120.504 62.1921 119.959 62.4388 119.379 62.5431C118.799 62.6474 118.202 62.606 117.642 62.4226C117.081 62.2392 116.576 61.9196 116.169 61.4924C115.833 61.1553 115.572 60.751 115.404 60.3059C115.235 59.8608 115.163 59.385 115.192 58.91C115.215 58.2751 115.413 57.6591 115.765 57.1299C116.001 56.7591 116.223 56.6107 116.223 56.6242Z" fill="#E0E0E0"/>
<path d="M173.178 64.5806C173.749 64.8088 174.378 64.8467 174.972 64.6884C175.607 64.5106 176.179 64.1578 176.624 63.6703C177.171 63.0791 177.541 62.3452 177.689 61.5531C177.844 60.7606 177.744 59.9397 177.406 59.2067C177.128 58.6057 176.715 58.0772 176.199 57.6626C175.701 57.2983 175.157 57.0013 174.581 56.7793C174.752 56.764 174.925 56.787 175.087 56.8468C175.543 56.9733 175.972 57.1812 176.354 57.4603C176.927 57.8812 177.389 58.434 177.703 59.0718C178.088 59.8602 178.206 60.7523 178.04 61.6138C177.875 62.4749 177.462 63.2692 176.853 63.8996C176.358 64.4153 175.723 64.7741 175.026 64.9312C174.559 65.0414 174.07 65.0157 173.617 64.857C173.3 64.7289 173.165 64.594 173.178 64.5806Z" fill="#E0E0E0"/>
<path d="M135.777 198.462L145.776 201.422C145.776 201.422 151.292 203.789 153.975 204.403C157.306 205.165 159.578 204.133 159.7 202.279C159.821 200.424 157.232 200.188 157.232 200.188C155.031 199.35 152.891 198.361 150.826 197.228C149.327 196.187 148.101 194.799 147.253 193.183L150.826 193.675C150.826 193.675 158.345 199.069 161.176 200.701C164.008 202.333 164.629 199.467 164.871 198.604C165.114 197.741 156.497 188.996 156.497 188.996C156.497 188.996 164.75 194.295 166.227 195.617C167.703 196.939 169.928 197.37 170.421 196.514C170.913 195.657 172.268 195.651 170.421 191.996C168.573 188.342 153.786 178.511 153.786 178.511L157.832 177.648L162.269 179.623C162.578 181.146 163.207 182.585 164.116 183.844C165.714 186.218 168.553 183.844 168.553 183.844L166.793 174.742L158.028 169.253C158.028 169.253 148.912 170.366 147.556 170.979C146.201 171.593 144.718 174.175 144.718 174.175L142.257 175.173C138.434 176.279 138.562 180.102 137.328 180.224C136.094 180.345 100.129 173.333 100.129 173.333L96.8719 172.483C91.4778 176.576 89.3269 183.339 88.3762 189.34C88.3762 189.34 87.385 192.279 88.3762 193.898L135.777 198.462Z" fill="#FFBE9D"/>
<path d="M129.176 192.064C129.133 191.871 129.122 191.673 129.142 191.477C129.14 191.251 129.16 191.025 129.203 190.803C129.234 190.497 129.293 190.195 129.378 189.899C129.884 188.197 130.741 186.619 131.893 185.267C133.012 183.908 134.258 182.66 135.615 181.538C136.153 181.048 136.738 180.612 137.361 180.237C136.863 180.754 136.333 181.24 135.777 181.693C134.48 182.856 133.272 184.113 132.163 185.456C131.043 186.779 130.181 188.3 129.621 189.94C129.223 191.228 129.25 192.07 129.176 192.064Z" fill="#EB996E"/>
<path d="M144.751 174.175C144.751 174.175 144.455 174.33 143.996 174.701C143.357 175.241 142.805 175.875 142.358 176.583C142.035 177.061 141.76 177.569 141.535 178.1C141.328 178.724 141.196 179.372 141.144 180.028C141.051 180.791 140.779 181.521 140.348 182.159C139.86 182.776 139.459 183.456 139.155 184.181C138.693 185.407 138.693 186.759 139.155 187.984L139.202 188.112L139.088 188.187C137.524 189.196 136.392 190.751 135.912 192.549C135.746 193.258 135.645 193.98 135.608 194.707C135.554 194.519 135.531 194.323 135.541 194.127C135.534 193.58 135.592 193.035 135.716 192.502C136.146 190.613 137.292 188.965 138.912 187.903L138.845 188.106C138.357 186.801 138.357 185.364 138.845 184.06C139.156 183.314 139.574 182.616 140.085 181.99C140.496 181.386 140.755 180.692 140.841 179.967C140.922 178.682 141.392 177.452 142.189 176.441C142.665 175.724 143.263 175.097 143.956 174.587C144.142 174.446 144.346 174.331 144.563 174.243C144.622 174.212 144.686 174.19 144.751 174.175Z" fill="#EB996E"/>
<path d="M153.409 178.207C152.546 178.319 151.669 178.226 150.849 177.936C150.029 177.645 149.289 177.165 148.689 176.535C148.756 176.454 149.66 177.149 150.961 177.601C152.263 178.052 153.409 178.106 153.409 178.207Z" fill="#EB996E"/>
<path d="M155.715 188.166C154.413 187.801 153.147 187.318 151.932 186.723C150.671 186.239 149.453 185.648 148.291 184.957C149.59 185.332 150.855 185.815 152.074 186.4C153.336 186.884 154.554 187.475 155.715 188.166Z" fill="#EB996E"/>
<path d="M147.604 193.088C146.295 192.645 145.015 192.118 143.774 191.511C144.477 191.542 145.167 191.721 145.796 192.037C146.468 192.251 147.085 192.61 147.604 193.088Z" fill="#EB996E"/>
<path d="M154.474 188.807C153.894 189.118 153.383 189.545 152.974 190.061C152.565 190.577 152.265 191.171 152.094 191.807C152.047 191.807 152.006 191.571 152.094 191.194C152.189 190.699 152.402 190.235 152.714 189.839C153.026 189.444 153.429 189.129 153.888 188.921C154.218 188.78 154.461 188.766 154.474 188.807Z" fill="#EB996E"/>
<path d="M158.088 183.339C158.129 183.433 157.468 183.77 157.023 184.525C156.796 185.005 156.607 185.5 156.457 186.009C156.361 185.73 156.335 185.433 156.383 185.142C156.43 184.852 156.548 184.577 156.726 184.343C157.239 183.48 158.075 183.244 158.088 183.339Z" fill="#EB996E"/>
<path d="M157.07 173.434C157.036 173.434 156.902 173.279 156.8 172.955C156.679 172.514 156.679 172.048 156.8 171.606C156.918 171.171 157.151 170.775 157.475 170.46C157.717 170.224 157.92 170.143 157.94 170.177C157.618 170.648 157.358 171.158 157.165 171.694C157.064 172.268 157.033 172.852 157.07 173.434Z" fill="#EB996E"/>
<path d="M229.965 176.535C229.965 176.535 229.513 167.689 220.343 165.855C211.173 164.021 195.112 171.815 195.112 171.815L150.112 203.175L151.46 207.052L197.135 200.687L201.315 202.292L233.397 181.215L263.671 159.328L260.3 156.692C260.3 156.692 251.818 162.538 246.208 165.053C240.598 167.568 232.487 171.977 229.965 176.535Z" fill="#F5F5F5"/>
<path d="M149.417 208.334L187.5 184.674L227.76 178.207C227.76 178.207 229.783 181.134 233.201 180.419L266.308 157.494L266.935 158.876L202.731 203.985C201.789 204.329 200.77 204.409 199.784 204.217C198.799 204.024 197.885 203.566 197.142 202.892L149.417 208.334Z" fill="#455A64"/>
<path d="M227.76 178.208C227.669 178.307 227.564 178.393 227.45 178.464L226.519 179.138C225.71 179.718 224.544 180.561 223.148 181.626C220.289 183.75 216.405 186.777 212.211 190.209C208.018 193.641 204.248 196.831 201.551 199.157L198.335 201.921L197.459 202.663C197.364 202.757 197.257 202.839 197.142 202.906C197.142 202.906 197.223 202.798 197.411 202.616L198.241 201.82C198.969 201.146 200.027 200.162 201.363 198.982C204.019 196.608 207.748 193.399 211.962 189.953C216.176 186.508 220.053 183.514 222.973 181.437C224.416 180.392 225.609 179.583 226.445 179.037L227.409 178.417C227.52 178.336 227.637 178.266 227.76 178.208Z" fill="#263238"/>
<path d="M227.349 173.285C223.701 169.368 217.956 167.972 212.616 168.39C207.276 168.808 202.212 170.797 197.229 172.773L150.644 204.659L151.062 205.859L197.897 174.169C197.897 174.169 208.361 170.797 212.994 170.217C220.734 169.253 227.349 173.285 227.349 173.285Z" fill="#E0E0E0"/>
<path d="M234.658 177.479L257.057 162.369C257.057 162.369 238.703 171.917 234.658 177.479Z" fill="#E0E0E0"/>
<path d="M150.644 204.659C150.702 204.601 150.765 204.549 150.833 204.504L151.413 204.092L153.645 202.521L161.898 196.804L189.206 178.052L197.135 172.658C201.647 170.623 206.408 169.192 211.294 168.404C215.242 167.846 219.266 168.414 222.905 170.042C224.266 170.675 225.52 171.517 226.62 172.537C227.444 173.304 228.144 174.193 228.697 175.173C229.045 175.788 229.317 176.442 229.506 177.122C229.554 177.344 229.594 177.52 229.628 177.655C229.643 177.715 229.654 177.775 229.661 177.837C229.419 176.927 229.061 176.052 228.596 175.234C228.029 174.28 227.325 173.414 226.506 172.665C225.402 171.676 224.157 170.858 222.811 170.238C219.207 168.671 215.238 168.139 211.348 168.7C206.501 169.495 201.778 170.916 197.297 172.928H197.33L189.401 178.322L162.073 197.006L153.753 202.636L151.487 204.146L150.887 204.537C150.811 204.586 150.729 204.627 150.644 204.659Z" fill="#263238"/>
<path d="M191.424 180.554C191.53 180.466 191.648 180.393 191.774 180.338C192.01 180.21 192.361 180.014 192.813 179.785C193.723 179.313 195.051 178.652 196.724 177.897C201.059 175.865 205.661 174.455 210.391 173.71C215.146 172.992 220.004 173.437 224.55 175.005C225.917 175.497 227.229 176.128 228.468 176.886C228.913 177.142 229.23 177.392 229.452 177.56C229.57 177.633 229.681 177.716 229.783 177.81C229.783 177.81 229.291 177.526 228.401 177.021C227.146 176.316 225.83 175.727 224.47 175.261C219.944 173.777 215.134 173.372 210.425 174.081C205.728 174.824 201.151 176.184 196.811 178.127C195.132 178.855 193.791 179.475 192.86 179.913L191.795 180.406C191.676 180.467 191.552 180.517 191.424 180.554Z" fill="#263238"/>
<path d="M262.471 158.377C262.471 158.377 262.377 158.465 262.181 158.6L261.311 159.18L258.082 161.256C255.344 163.01 251.575 165.43 247.442 168.154C243.308 170.878 239.614 173.38 236.916 175.2L233.727 177.344L232.851 177.917C232.753 177.989 232.646 178.048 232.534 178.093C232.617 178.005 232.71 177.926 232.81 177.857L233.653 177.23C234.381 176.69 235.447 175.928 236.775 174.991C239.431 173.123 243.126 170.581 247.266 167.857C251.406 165.133 255.203 162.747 257.967 161.047C259.349 160.198 260.475 159.524 261.257 159.065L262.168 158.539C262.264 158.476 262.365 158.422 262.471 158.377Z" fill="#263238"/>
<path d="M242.095 182.624C241.637 183.725 241.056 184.77 240.362 185.739C239.499 186.764 236.681 188.193 236.458 190.142C236.236 192.091 236.694 196.662 233.646 200.141C231.682 202.305 229.196 203.93 226.425 204.861L214.403 203.688L195.2 196.129C194.771 196.021 194.401 195.748 194.172 195.369C193.942 194.991 193.871 194.537 193.973 194.107C194.092 193.638 194.348 193.216 194.708 192.894C195.068 192.572 195.517 192.365 195.995 192.3L196.454 192.225C196.454 192.225 195.348 191.322 196.933 189.737C198.281 188.389 201.16 189.151 202.644 189.643C204.127 190.135 212.825 193.769 214.383 194.329C215.765 194.821 216.83 195.26 216.83 195.26C216.83 195.26 205.698 187.748 205.543 186.764C205.361 185.584 205.482 185.045 206.622 184.222C207.97 183.244 210.182 184.289 212.326 185.193C213.924 185.867 224.112 190.897 224.112 190.897C224.112 190.897 224.571 190.452 224.112 189.549C223.654 188.645 220.269 184.289 219.736 183.48C219.204 182.671 219.062 182.213 219.595 181.532C220.336 180.567 222.292 180.109 224.092 181.754C225.232 182.806 229.284 185.53 229.284 185.53L247.988 171.883C247.988 171.883 250.314 171.822 249.505 175.065C248.696 178.309 242.095 182.624 242.095 182.624Z" fill="#FFBE9D"/>
<path d="M228.151 193.999C227.403 193.832 226.706 193.488 226.119 192.995C225.532 192.502 225.073 191.875 224.78 191.167C224.867 191.113 225.414 191.949 226.344 192.724C227.275 193.5 228.198 193.898 228.151 193.999Z" fill="#EB996E"/>
<path d="M229.688 185.86C229.688 185.82 229.938 185.746 230.363 185.8C230.893 185.877 231.391 186.098 231.804 186.439C232.216 186.781 232.527 187.229 232.702 187.735C232.83 188.126 232.81 188.409 232.763 188.409C232.481 187.78 232.077 187.211 231.576 186.737C231.01 186.325 230.369 186.027 229.688 185.86Z" fill="#EB996E"/>
<path d="M230.572 189.616C230.471 189.616 230.423 188.611 230.026 187.465C229.628 186.319 229.068 185.476 229.149 185.442C229.741 185.947 230.163 186.623 230.356 187.378C230.657 188.083 230.733 188.866 230.572 189.616Z" fill="#EB996E"/>
<path d="M241.636 181.653C241.636 181.687 241.4 181.552 241.158 181.228C240.85 180.798 240.657 180.297 240.598 179.772C240.539 179.247 240.616 178.715 240.82 178.228C240.982 177.864 241.164 177.682 241.198 177.709C240.958 178.355 240.872 179.048 240.948 179.733C241.024 180.418 241.26 181.076 241.636 181.653Z" fill="#EB996E"/>
<path d="M224.733 198.705C224.3 198.804 223.85 198.804 223.418 198.705C222.37 198.52 221.365 198.145 220.451 197.599C219.542 197.065 218.686 196.444 217.896 195.745C217.544 195.487 217.232 195.178 216.972 194.828C217.36 195.023 217.722 195.265 218.051 195.549C218.872 196.184 219.733 196.767 220.626 197.296C221.511 197.82 222.467 198.213 223.465 198.462C224.234 198.624 224.733 198.651 224.733 198.705Z" fill="#EB996E"/>
<path d="M227.861 196.777C227.956 196.777 227.962 197.451 227.396 198.011C226.829 198.57 226.142 198.543 226.155 198.449C226.169 198.354 226.688 198.22 227.146 197.775C227.605 197.33 227.76 196.763 227.861 196.777Z" fill="#EB996E"/>
<path d="M232.453 193.405C232.493 193.405 232.493 193.587 232.365 193.83C232.188 194.129 231.922 194.365 231.603 194.504C231.287 194.658 230.932 194.71 230.585 194.653C230.315 194.599 230.181 194.491 230.201 194.45C230.221 194.41 230.821 194.504 231.455 194.187C232.089 193.871 232.358 193.372 232.453 193.405Z" fill="#EB996E"/>
<path d="M216.257 201.058C216.223 201.146 211.753 199.285 206.278 196.891C200.803 194.498 196.393 192.482 196.461 192.401C196.528 192.32 200.971 194.181 206.447 196.574C211.922 198.968 216.297 200.971 216.257 201.058Z" fill="#EB996E"/>
<path d="M0.061108 135.243L14.6926 207.073H141.69C142.363 207.073 143.007 206.806 143.483 206.33C143.958 205.855 144.225 205.21 144.225 204.538C144.226 204.204 144.161 203.874 144.034 203.565C143.907 203.257 143.721 202.977 143.485 202.741C143.25 202.504 142.97 202.317 142.662 202.189C142.354 202.061 142.024 201.996 141.69 201.996H116.122L102.556 135.169C102.43 134.546 102.093 133.984 101.602 133.58C101.111 133.176 100.495 132.954 99.8589 132.951L2.8121 131.913C2.39799 131.908 1.98817 131.997 1.61262 132.171C1.23707 132.346 0.905294 132.602 0.641575 132.921C0.377855 133.241 0.188866 133.615 0.0884315 134.017C-0.0120026 134.419 -0.0213382 134.838 0.061108 135.243Z" fill="#E0E0E0"/>
<path d="M0.061101 135.243L0.0206443 135.028C-0.00680005 134.804 -0.00680005 134.577 0.0206443 134.353C0.068541 133.924 0.215187 133.511 0.449122 133.147C0.683057 132.783 0.997943 132.478 1.36917 132.256C1.62698 132.098 1.90962 131.984 2.20526 131.919C2.53489 131.865 2.86933 131.844 3.20317 131.859H5.48892L11.2067 131.906L47.9069 132.25L73.4884 132.513L87.8233 132.654L95.3346 132.735L99.1779 132.776C99.5083 132.776 99.8117 132.776 100.162 132.776C100.505 132.814 100.838 132.912 101.147 133.066C101.769 133.369 102.262 133.886 102.536 134.522C102.662 134.837 102.753 135.165 102.805 135.5L103.001 136.464C103.129 137.138 103.264 137.758 103.399 138.406C103.659 139.705 103.925 141.013 104.194 142.33C104.729 144.96 105.271 147.623 105.819 150.32C106.916 155.714 108.04 161.227 109.191 166.86C111.476 178.12 113.863 189.832 116.311 201.921L116.142 201.787H141.286C141.617 201.774 141.949 201.794 142.277 201.847C142.952 201.992 143.545 202.39 143.936 202.96C144.33 203.527 144.492 204.225 144.387 204.908C144.326 205.322 144.169 205.716 143.929 206.059C143.689 206.402 143.373 206.684 143.005 206.884C142.635 207.081 142.224 207.192 141.805 207.208H74.3178H14.6926H14.5847V207.1C10.1076 185.018 6.49358 167.062 3.9516 154.615C2.69747 148.398 1.72653 143.557 1.06575 140.267C0.742106 138.622 0.494877 137.374 0.324064 136.525C0.155498 135.675 0.0813281 135.243 0.0813281 135.243C0.0813281 135.243 0.182468 135.675 0.357776 136.511C0.533085 137.347 0.80279 138.615 1.13992 140.246C1.81419 143.537 2.81884 148.371 4.09994 154.588C6.64866 167.028 10.3234 184.977 14.8477 207.046L14.7129 206.938L74.338 206.904H141.778C142.14 206.89 142.495 206.795 142.816 206.628C143.135 206.452 143.41 206.206 143.619 205.908C143.828 205.61 143.966 205.268 144.023 204.908C144.11 204.311 143.971 203.702 143.632 203.202C143.287 202.711 142.77 202.366 142.182 202.238C141.879 202.192 141.572 202.174 141.265 202.184H115.981V202.05C113.533 189.973 111.153 178.261 108.874 166.988C107.728 161.351 106.604 155.835 105.502 150.441L103.884 142.451C103.621 141.137 103.352 139.828 103.089 138.534C102.961 137.86 102.826 137.233 102.698 136.592L102.502 135.621C102.452 135.308 102.37 135.001 102.259 134.704C102.074 134.278 101.779 133.909 101.405 133.635C101.031 133.36 100.59 133.189 100.129 133.14C99.8319 133.14 99.4948 133.14 99.1779 133.14L95.3346 133.093L87.8165 133.012L73.4884 132.843L47.9001 132.54L11.1999 132.088L5.48892 132.014L3.20317 131.98C2.87405 131.96 2.54369 131.978 2.21874 132.034C1.92902 132.094 1.65111 132.201 1.39614 132.351C1.0324 132.563 0.721899 132.856 0.488226 133.206C0.254553 133.557 0.103865 133.956 0.0476154 134.374C0.0208353 134.663 0.0253568 134.955 0.061101 135.243Z" fill="#263238"/>
<path d="M54.3865 172.308C56.7028 172.308 58.5805 170.43 58.5805 168.114C58.5805 165.798 56.7028 163.92 54.3865 163.92C52.0703 163.92 50.1926 165.798 50.1926 168.114C50.1926 170.43 52.0703 172.308 54.3865 172.308Z" fill="white"/>
<path d="M0.182465 135.844C0.182465 135.844 0.330801 135.844 0.620735 135.844H6.83745L24.9954 135.931L84.9037 136.349L93.568 136.423H95.6987C96.0619 136.41 96.4255 136.432 96.7842 136.491C97.3329 136.602 97.84 136.864 98.2494 137.246C98.6587 137.628 98.9544 138.116 99.1037 138.655C99.2655 139.33 99.3801 140.004 99.5217 140.678L102.617 156.281C104.579 166.226 106.352 175.16 107.835 182.705C109.319 190.25 110.532 196.305 111.328 200.519C111.733 202.616 112.043 204.248 112.259 205.367C112.36 205.913 112.441 206.338 112.495 206.635C112.549 206.931 112.562 207.066 112.562 207.066C112.562 207.066 112.522 206.924 112.461 206.641C112.4 206.358 112.306 205.927 112.191 205.38L111.193 200.573C110.344 196.359 109.117 190.284 107.593 182.779C106.069 175.275 104.289 166.307 102.3 156.368C101.309 151.399 100.277 146.18 99.1846 140.772C99.043 140.098 98.9217 139.424 98.7733 138.75C98.5954 138.109 98.1872 137.557 97.6271 137.199C97.3494 137.021 97.0405 136.898 96.7168 136.835C96.3782 136.78 96.0347 136.759 95.6919 136.774H93.568L84.9037 136.707L24.9954 136.181L6.83745 135.978L1.90184 135.844H0.613993H0.182465Z" fill="#263238"/>
</svg>
