<svg width="273" height="261" viewBox="0 0 273 261" fill="none" xmlns="http://www.w3.org/2000/svg">
<path d="M136.297 261C211.572 261 272.594 227.455 272.594 186.075C272.594 144.695 211.572 111.15 136.297 111.15C61.0223 111.15 0 144.695 0 186.075C0 227.455 61.0223 261 136.297 261Z" fill="#F5F5F5"/>
<path d="M191.897 220.293C211.284 220.293 227 211.22 227 200.029C227 188.837 211.284 179.765 191.897 179.765C172.51 179.765 156.794 188.837 156.794 200.029C156.794 211.22 172.51 220.293 191.897 220.293Z" fill="#E6E6E6"/>
<path d="M107.869 220.616C126.456 220.616 141.525 211.915 141.525 201.183C141.525 190.451 126.456 181.751 107.869 181.751C89.2815 181.751 74.2133 190.451 74.2133 201.183C74.2133 211.915 89.2815 220.616 107.869 220.616Z" fill="#E6E6E6"/>
<path d="M36.2634 189.46L66.5456 206.943C74.3211 211.423 86.983 211.423 94.7405 206.943L120.082 192.331C125.806 189.03 125.812 183.623 120.082 180.315L89.8001 162.802C82.0546 158.323 69.3747 158.317 61.6232 162.802L36.2634 177.45C30.5395 180.752 30.5395 186.159 36.2634 189.46Z" fill="#E6E6E6"/>
<path d="M154.234 29.8907C155.041 25.5662 154.705 21.1059 153.258 16.9515C151.811 12.797 149.304 9.09248 145.986 6.20458C142.667 3.31668 138.652 1.34558 134.338 0.486406C130.023 -0.372765 125.559 -0.0902064 121.388 1.30611C117.216 2.70242 113.481 5.16407 110.553 8.44735C107.626 11.7306 105.606 15.7217 104.695 20.0254C103.783 24.3291 104.012 28.7962 105.357 32.9845C106.703 37.1727 109.119 40.9369 112.367 43.9044C111.105 46.6736 108.778 50.7109 105.71 51.937C105.71 51.937 112.887 55.5256 119.203 48.3483C124.935 50.8713 131.4 51.1754 137.343 49.2016C143.287 47.2278 148.285 43.1168 151.369 37.6661C159.904 40.6208 164.42 34.3825 164.42 34.3825C160.849 34.7713 156.567 31.7688 154.234 29.8907Z" fill="#FFFF00"/>
<path d="M133.875 25.4049L134.826 22.6357C134.851 22.5505 134.846 22.4589 134.809 22.3777C134.773 22.2964 134.709 22.2309 134.628 22.1931L132.236 21.0806C132.149 21.0262 132.077 20.9503 132.028 20.8602C131.979 20.7701 131.954 20.6689 131.955 20.5662C131.967 20.0582 131.937 19.5501 131.865 19.047C131.841 18.9506 131.842 18.8498 131.867 18.7538C131.892 18.6577 131.941 18.5694 132.009 18.4968L134.377 17.0314C134.497 16.9537 134.509 16.7144 134.377 16.4871L133.211 14.0947C133.103 13.8734 132.906 13.7358 132.768 13.7837L130.16 14.7167C130.061 14.7266 129.961 14.7116 129.869 14.6729C129.777 14.6343 129.696 14.5733 129.634 14.4954C129.286 14.1249 128.904 13.7885 128.492 13.4906C128.411 13.4278 128.348 13.3454 128.308 13.2511C128.268 13.1569 128.253 13.054 128.264 12.9523L128.863 10.3984C128.883 10.3113 128.871 10.2197 128.829 10.1405C128.788 10.0614 128.719 10 128.635 9.96775L125.872 9.01676C125.792 8.98823 125.705 8.98945 125.625 9.02021C125.546 9.05097 125.481 9.1092 125.441 9.18423L124.299 11.6185C124.259 11.6937 124.2 11.7567 124.127 11.8009C124.055 11.8451 123.971 11.8689 123.886 11.8697C123.298 11.8446 122.708 11.8827 122.128 11.9834C122.024 11.9767 121.923 11.9428 121.836 11.8851C121.749 11.8274 121.678 11.7478 121.631 11.6544L120.351 9.62085C120.22 9.41151 120.011 9.29787 119.879 9.35768L117.146 10.6915C117.02 10.7573 116.984 10.9905 117.068 11.2238L117.881 13.4906C117.926 13.5862 117.944 13.6919 117.935 13.7969C117.925 13.902 117.888 14.0026 117.827 14.0887C117.383 14.4862 116.983 14.9292 116.631 15.4105C116.577 15.4758 116.506 15.5253 116.426 15.5537C116.346 15.5821 116.26 15.5884 116.177 15.572L113.557 14.9739C113.474 14.9581 113.388 14.9731 113.316 15.016C113.243 15.059 113.188 15.1269 113.162 15.2072L112.205 17.9704C112.181 18.0564 112.189 18.148 112.226 18.229C112.263 18.3101 112.328 18.3753 112.409 18.413L114.801 19.5315C114.888 19.5859 114.96 19.6618 115.009 19.7519C115.058 19.842 115.083 19.9432 115.082 20.0459C115.067 20.5539 115.097 21.0623 115.172 21.5651C115.194 21.6606 115.193 21.7602 115.168 21.8552C115.143 21.9501 115.095 22.0374 115.028 22.1094L112.684 23.5927C112.558 23.6704 112.552 23.9097 112.684 24.131L113.85 26.5234C113.958 26.7507 114.155 26.8883 114.293 26.8404L116.9 25.9014C116.999 25.8925 117.098 25.908 117.188 25.9466C117.279 25.9853 117.359 26.0457 117.421 26.1227C117.77 26.4937 118.152 26.832 118.563 27.1335C118.645 27.1956 118.709 27.2778 118.75 27.3721C118.791 27.4664 118.807 27.5696 118.796 27.6718L118.198 30.2257C118.178 30.3128 118.19 30.4044 118.231 30.4836C118.273 30.5627 118.342 30.6241 118.426 30.6563L121.189 31.6073C121.268 31.6355 121.354 31.6341 121.433 31.6033C121.511 31.5725 121.575 31.5144 121.613 31.4399L122.768 28.9936C122.807 28.9176 122.866 28.8539 122.939 28.8095C123.011 28.7652 123.095 28.7419 123.181 28.7424C123.767 28.7647 124.354 28.7267 124.933 28.6288C125.037 28.6349 125.137 28.6679 125.224 28.7245C125.311 28.7811 125.382 28.8594 125.429 28.9517L126.715 30.9913C126.847 31.1946 127.056 31.3143 127.182 31.2485L129.915 29.9147C130.047 29.8549 130.083 29.6156 129.999 29.3884L129.186 27.1215C129.14 27.0264 129.121 26.9211 129.129 26.816C129.137 26.711 129.173 26.6101 129.233 26.5234C129.677 26.1279 130.078 25.6868 130.43 25.2076C130.484 25.1417 130.554 25.0915 130.634 25.0621C130.714 25.0326 130.8 25.025 130.884 25.0401L133.504 25.6382C133.583 25.6468 133.663 25.6284 133.73 25.5861C133.797 25.5438 133.848 25.4799 133.875 25.4049ZM121.685 25.6681C120.623 25.3018 119.693 24.6288 119.013 23.7341C118.334 22.8394 117.934 21.7633 117.866 20.6417C117.798 19.5202 118.064 18.4035 118.63 17.433C119.196 16.4625 120.037 15.6816 121.047 15.1892C122.057 14.6967 123.191 14.5148 124.304 14.6664C125.417 14.8179 126.461 15.2962 127.302 16.0407C128.144 16.7852 128.746 17.7625 129.032 18.8491C129.318 19.9357 129.276 21.0828 128.91 22.1453C128.667 22.8511 128.288 23.5022 127.793 24.0613C127.299 24.6204 126.699 25.0766 126.028 25.4038C125.357 25.7309 124.628 25.9226 123.883 25.968C123.138 26.0134 122.391 25.9115 121.685 25.6681ZM122.283 23.9994C121.55 23.7476 120.908 23.2841 120.439 22.6675C119.969 22.0509 119.693 21.3089 119.646 20.5353C119.598 19.7617 119.781 18.9914 120.171 18.3218C120.561 17.6522 121.141 17.1133 121.838 16.7734C122.534 16.4335 123.316 16.3079 124.084 16.4124C124.852 16.5168 125.572 16.8467 126.152 17.3603C126.732 17.8739 127.148 18.5481 127.345 19.2977C127.542 20.0472 127.512 20.8384 127.26 21.5711C127.092 22.0598 126.83 22.5107 126.487 22.8976C126.145 23.2846 125.73 23.6 125.265 23.8257C124.8 24.0514 124.295 24.1829 123.779 24.2127C123.264 24.2425 122.747 24.17 122.259 23.9994H122.283Z" fill="#FAFAFA"/>
<path d="M143.6 39.5861L145.053 38.025C145.097 37.9767 145.121 37.9138 145.121 37.8486C145.121 37.7834 145.097 37.7205 145.053 37.6722L143.803 36.2247C143.759 36.1639 143.733 36.0922 143.726 36.0174C143.72 35.9426 143.734 35.8674 143.767 35.8001C143.928 35.4654 144.058 35.1171 144.156 34.7594C144.198 34.5979 144.312 34.4483 144.413 34.4364L146.417 34.1433C146.525 34.1433 146.602 33.9699 146.596 33.7904L146.525 31.8466C146.525 31.6671 146.429 31.5116 146.327 31.5056L144.306 31.386C144.204 31.386 144.078 31.2425 144.025 31.087C143.899 30.7372 143.742 30.399 143.558 30.0762C143.521 30.0114 143.502 29.9383 143.502 29.8638C143.502 29.7894 143.521 29.7163 143.558 29.6515L144.7 28.1144C144.744 28.066 144.768 28.0031 144.768 27.9379C144.768 27.8727 144.744 27.8099 144.7 27.7615L143.139 26.3081C143.093 26.2681 143.033 26.2461 142.972 26.2461C142.91 26.2461 142.851 26.2681 142.804 26.3081L141.321 27.594C141.272 27.632 141.213 27.6564 141.151 27.6648C141.089 27.6732 141.026 27.6653 140.968 27.6419C140.586 27.4524 140.185 27.3022 139.772 27.1933C139.664 27.1933 139.563 27.0079 139.539 26.8344L139.282 25.0939C139.282 24.9145 139.15 24.7769 139.048 24.7829L136.829 24.8068C136.722 24.8068 136.632 24.9564 136.614 25.1358L136.488 26.8882C136.49 26.9639 136.471 27.0386 136.434 27.1047C136.398 27.1709 136.344 27.2262 136.279 27.2651C135.874 27.4041 135.483 27.5824 135.113 27.7974C135.06 27.8296 134.999 27.8466 134.936 27.8466C134.874 27.8466 134.813 27.8296 134.76 27.7974L133.187 26.6012C133.135 26.5666 133.073 26.5518 133.012 26.5595C132.95 26.5671 132.893 26.5968 132.852 26.643L131.399 28.2041C131.356 28.253 131.333 28.3157 131.333 28.3805C131.333 28.4454 131.356 28.508 131.399 28.557L132.643 30.0104C132.687 30.0712 132.713 30.1429 132.72 30.2177C132.726 30.2925 132.712 30.3677 132.678 30.435C132.521 30.7708 132.391 31.1189 132.29 31.4757C132.248 31.6372 132.134 31.7868 132.033 31.7987L130.029 32.0918C129.921 32.0918 129.843 32.2652 129.849 32.4447L129.921 34.3885C129.921 34.568 130.017 34.7235 130.125 34.7295L132.14 34.879C132.248 34.879 132.367 35.0225 132.421 35.178C132.547 35.5278 132.703 35.866 132.888 36.1888C132.926 36.2541 132.946 36.3284 132.946 36.4042C132.946 36.4799 132.926 36.5542 132.888 36.6195L131.745 38.1506C131.702 38.199 131.678 38.2619 131.678 38.3271C131.678 38.3923 131.702 38.4552 131.745 38.5035L133.306 39.9569C133.353 39.9969 133.413 40.0189 133.474 40.0189C133.535 40.0189 133.595 39.9969 133.641 39.9569L135.125 38.671C135.174 38.633 135.233 38.6086 135.295 38.6002C135.357 38.5918 135.42 38.5997 135.478 38.6231C135.86 38.8126 136.261 38.9629 136.674 39.0717C136.781 39.0717 136.883 39.2571 136.907 39.4306L137.164 41.1711C137.164 41.3505 137.296 41.4881 137.398 41.4821L139.617 41.4044C139.724 41.4044 139.814 41.2548 139.832 41.0754L139.957 39.3229C139.956 39.2473 139.975 39.1726 140.012 39.1065C140.048 39.0403 140.102 38.985 140.167 38.9461C140.583 38.8114 140.984 38.633 141.363 38.4138C141.416 38.3816 141.477 38.3646 141.539 38.3646C141.602 38.3646 141.663 38.3816 141.716 38.4138L143.289 39.61C143.336 39.6407 143.392 39.6549 143.448 39.6506C143.505 39.6463 143.558 39.6236 143.6 39.5861ZM135.388 36.1709C134.788 35.6121 134.368 34.8881 134.18 34.0904C133.992 33.2927 134.044 32.4571 134.331 31.6893C134.618 30.9215 135.125 30.2559 135.79 29.7766C136.455 29.2973 137.247 29.0259 138.066 28.9967C138.885 28.9674 139.695 29.1816 140.392 29.6123C141.089 30.0429 141.643 30.6706 141.984 31.416C142.325 32.1614 142.437 32.9911 142.306 33.8002C142.175 34.6092 141.808 35.3614 141.249 35.9616C140.499 36.7657 139.461 37.2395 138.362 37.2787C137.263 37.318 136.193 36.9195 135.388 36.1709ZM136.447 35.0345C136.07 34.6849 135.806 34.2315 135.688 33.7318C135.57 33.2321 135.602 32.7085 135.781 32.2273C135.961 31.746 136.279 31.3288 136.695 31.0283C137.111 30.7278 137.608 30.5576 138.121 30.5391C138.634 30.5207 139.141 30.6549 139.578 30.9248C140.015 31.1947 140.362 31.5881 140.575 32.0552C140.789 32.5224 140.858 33.0423 140.776 33.5492C140.694 34.0561 140.463 34.5272 140.113 34.9029C139.642 35.4037 138.991 35.6969 138.303 35.7182C137.616 35.7395 136.948 35.4872 136.447 35.0165V35.0345Z" fill="#FAFAFA"/>
<path d="M151.34 79.139C153.02 79.139 173.697 81.358 176.658 79.6893C179.463 78.1043 188.386 56.2613 188.386 56.2613C189.314 48.1809 186.628 45.944 186.628 45.944C186.628 45.944 182.316 44.9451 179.199 52.2181C177.465 56.2613 171.568 71.2739 171.568 71.2739C171.568 71.2739 154.169 72.8589 152.219 71.5729C151.226 71.0885 150.735 69.7786 150.377 68.8695C149.778 67.3622 150.078 65.6576 150.024 65.0356C149.928 63.947 148.343 64.6947 147.912 66.495C147.595 67.8048 147.847 68.9951 147.356 69.2583C146.57 69.1702 145.796 68.9957 145.047 68.7379C143.977 68.3132 142.057 67.6673 140.956 68.4628C140.766 68.5975 140.612 68.7772 140.507 68.9859C140.403 69.1946 140.352 69.4258 140.358 69.659C140.475 70.2977 140.475 70.9522 140.358 71.5909C140.22 71.8857 140.122 72.1974 140.065 72.518C140.065 72.9426 140.298 73.2177 140.358 73.6185C140.442 74.1747 139.94 74.6831 139.987 75.2453C140.023 75.6461 140.34 75.975 140.436 76.3698C140.496 76.621 140.436 76.8961 140.532 77.1473C140.623 77.3874 140.765 77.6051 140.947 77.7856C141.13 77.9662 141.349 78.1055 141.59 78.194C143.132 78.8579 144.787 79.2154 146.465 79.2467C147.918 79.3364 149.743 79.157 151.34 79.139Z" fill="#FFA8A7"/>
<path d="M214.027 188.689C214.373 190.614 214.559 192.564 214.584 194.52C214.649 198.061 215.301 199.305 215.385 202.224C215.487 205.543 214.913 206.787 213.591 208.653C212.269 210.52 208.704 212.212 207.209 209.06C205.714 205.908 205.911 203.839 206.383 200.579C206.88 197.212 206.946 195.352 207.227 192.804C207.484 190.537 207.783 188.82 207.783 188.82L214.027 188.689Z" fill="#263238"/>
<path d="M203.979 160.817L215.642 160.607C215.469 168.383 214.231 181.356 214.027 188.659C213.991 190.034 214.063 199.341 213.543 202.176C212.765 206.423 207.717 205.848 207.448 203.306C207.179 200.764 207.777 189.891 207.759 188.772C207.807 184.089 205.606 171.858 204.458 163.448C204.416 163.036 204.033 161.223 203.979 160.817Z" fill="#FFA8A7"/>
<path d="M186.837 182.6C186.837 182.6 187.435 182.636 187.531 183.126C187.645 183.724 187.675 184.633 187.914 185.59C188.312 187.097 188.453 188.66 188.333 190.214C188.129 191.296 185.647 192.917 183.948 193.204C182.25 193.491 179.857 195.166 178.53 196.416C176.397 198.189 173.755 199.237 170.987 199.407C168.152 199.407 166.203 198.462 165.246 196.942C164.289 195.423 166.095 195.244 169.337 193.145L171.849 191.512C176.98 188.162 178.859 186.362 180.306 183.013L186.837 182.6Z" fill="#263238"/>
<path d="M180.264 180.776C180.354 178.383 179.116 160.607 179.116 160.607L189.152 161.738C186.76 175.895 186.586 180.716 186.855 182.779C186.906 182.974 186.929 183.176 186.921 183.377C186.921 186.129 183.805 187.612 181.383 189.442C180.426 190.166 177.967 192.397 175.09 193.378C173.224 194.018 169.779 194.257 169.337 193.127C172.285 190.872 176.293 187.935 178.637 185.351C179.756 184.131 180.18 183.186 180.264 180.776Z" fill="#FFA8A7"/>
<path d="M207.287 76.7765C210.718 81.2743 213.216 86.4132 214.631 91.8907C217.939 105.264 212.735 133.878 212.735 133.878C212.903 135.816 215.128 139.638 215.947 148.173C216.922 158.263 214.153 185.255 214.153 185.255C214.153 185.255 211.485 187.247 207.622 185.393C207.622 185.393 200.558 145.715 199.296 135.684C198.189 126.928 195.941 108.769 195.941 108.769L190.887 135.684C190.887 135.684 191.592 140.589 191.957 144.321C192.525 150.224 186.783 179.831 186.783 179.831C186.783 179.831 184.092 181.248 180.276 179.705C180.276 179.705 177.728 141.426 177.196 134.344C176.646 127.03 178.548 109.983 179.947 96.4124C180.372 92.3213 182.441 79.7012 183.165 76.1963L207.287 76.7765Z" fill="#455A64"/>
<path d="M195.935 108.757L194.738 100.474C191.275 100.262 187.921 99.1773 184.989 97.3215C184.989 97.3215 187.98 101.401 193.153 101.885L193.913 109.296L191.52 132.395L195.935 108.757Z" fill="#37474F"/>
<path d="M182.555 67.9365C182.68 70.3708 183.153 76.1605 183.153 76.1605C193.088 82.8833 207.281 76.7586 207.281 76.7586L209.35 62.6373C209.35 62.6373 204.165 55.3822 209.033 47.7324L201.258 46.2012L191.999 45.4417L186.616 45.9261C183.584 48.1511 181.562 52.6788 180.587 55.1729C179.612 57.667 178.141 62.7449 182.555 67.9365Z" fill="#FFFF00"/>
<path opacity="0.6" d="M182.555 67.9365C182.68 70.3708 183.153 76.1605 183.153 76.1605C193.088 82.8833 207.281 76.7586 207.281 76.7586L209.35 62.6373C209.35 62.6373 204.165 55.3822 209.033 47.7324L201.258 46.2012L191.999 45.4417L186.616 45.9261C183.584 48.1511 181.562 52.6788 180.587 55.1729C179.612 57.667 178.141 62.7449 182.555 67.9365Z" fill="white"/>
<path d="M161.806 74.7668L186.963 76.4595L199.75 104.81L175.718 102.579L161.806 74.7668Z" fill="#FFFF00"/>
<path opacity="0.1" d="M161.806 74.7668L186.963 76.4595L199.75 104.81L175.718 102.579L161.806 74.7668Z" fill="black"/>
<path opacity="0.15" d="M185.085 94.3788C185.448 95.3217 186.055 96.151 186.845 96.7817C187.634 97.4123 188.577 97.8216 189.577 97.9674C192.908 98.4041 196.114 96.7712 196.114 96.7712L195.043 94.3788H185.085Z" fill="black"/>
<path opacity="0.15" d="M169.648 77.7155L169.271 76.8423C169.067 76.3578 170.467 76.0647 172.399 76.1903L176.101 76.4236C178.039 76.5492 179.774 77.0217 179.977 77.5241L180.354 78.3974L169.648 77.7155Z" fill="black"/>
<path d="M167.333 74.5934C167.201 74.2884 167.758 74.097 168.571 74.1628L170.042 74.2824C170.042 74.2824 169.247 72.3864 172.477 72.4881C175.706 72.5898 176.819 74.6951 176.819 74.6951L178.392 74.8327C179.259 74.9044 180.091 75.2095 180.246 75.5025L180.533 76.0349L167.578 75.1616L167.333 74.5934Z" fill="#263238"/>
<path d="M169.211 75.2513C170.407 75.3051 170.892 75.365 171.209 76.1126C171.574 76.9619 171.777 77.5959 171.777 77.5959L177.513 77.9907C177.513 77.9907 177.034 76.9141 176.867 76.4954C176.699 76.0767 176.831 75.7717 177.746 75.8315V75.4726L168.774 74.9403L169.211 75.2513Z" fill="#263238"/>
<path d="M169.51 77.8292C169.51 77.8292 169.349 77.4404 169.139 76.9559C168.93 76.4714 170.335 76.1784 172.267 76.304L175.97 76.5372C177.908 76.6628 179.642 77.1354 179.845 77.6378L180.222 78.511L169.51 77.8292Z" fill="#37474F"/>
<path d="M187.932 90.4672C189.62 90.2605 191.264 89.7839 192.8 89.0556C191.863 88.9187 190.945 88.6697 190.067 88.314C189.664 88.1659 189.332 87.8708 189.138 87.488C188.944 87.1052 188.902 86.6631 189.02 86.2505C189.158 85.9096 189.983 86.3223 191.479 86.2505C193.393 86.1608 194.679 85.8318 196.706 86.2505C197.46 86.406 198.5 86.9324 199.17 86.5496C202.938 84.3665 212.879 77.3327 213.68 76.4774L209.266 63.2472C209.266 63.2472 203.178 56.034 208.004 47.5349C212.664 47.9117 215.78 48.5756 218.029 56.5484C220.385 64.9219 223.669 75.8494 223.519 79.2766C223.37 82.7037 214.296 86.3103 207.508 89.6896C204.643 91.1131 199.906 93.8345 198.052 94.7975C191.622 98.1469 188.482 97.8179 186.269 95.6528C182.71 92.2137 184.08 90.9516 187.932 90.4672Z" fill="#FFA8A7"/>
<path d="M216.922 42.2417C214.62 42.2401 212.413 41.3244 210.785 39.6959C209.158 38.0674 208.244 35.8594 208.244 33.5572V17.6295C210.546 17.6311 212.753 18.5468 214.381 20.1753C216.008 21.8038 216.922 24.0118 216.922 26.3141V42.2417Z" fill="#FFFF00"/>
<path opacity="0.6" d="M216.922 42.2417C214.62 42.2401 212.413 41.3244 210.785 39.6959C209.158 38.0674 208.244 35.8594 208.244 33.5572V17.6295C210.546 17.6311 212.753 18.5468 214.381 20.1753C216.008 21.8038 216.922 24.0118 216.922 26.3141V42.2417Z" fill="black"/>
<path d="M181.335 29.4242C180.59 28.1641 180.106 26.7674 179.91 25.3167C179.715 23.8661 179.813 22.391 180.198 20.9789V20.931C181.993 14.6389 187.19 9.9677 194.278 9.91387C196.493 9.88884 198.69 10.3198 200.731 11.18C202.772 12.0403 204.615 13.3113 206.144 14.9141C206.129 14.678 206.155 14.4411 206.222 14.2143C206.308 13.9533 206.446 13.7123 206.626 13.5053C206.807 13.2984 207.027 13.1297 207.274 13.0093C207.521 12.8889 207.79 12.8192 208.064 12.8042C208.339 12.7893 208.613 12.8295 208.872 12.9224L207.945 15.9129C208.199 15.5747 208.549 15.3205 208.949 15.1832C209.209 15.0926 209.485 15.0549 209.759 15.0722C210.034 15.0896 210.302 15.1617 210.548 15.2843C210.795 15.4069 211.014 15.5775 211.193 15.7861C211.373 15.9948 211.509 16.2372 211.593 16.4991L208.244 17.6295C209.663 19.9894 210.423 22.687 210.445 25.4408V26.003C210.443 29.5278 209.043 32.9078 206.551 35.4008C204.059 37.8938 200.679 39.2958 197.155 39.299H192.836C187.926 39.293 183.643 33.3597 181.335 29.4242Z" fill="#FFFF00"/>
<g opacity="0.55">
<path d="M181.335 29.4242C180.59 28.1641 180.106 26.7674 179.91 25.3167C179.715 23.8661 179.813 22.391 180.198 20.9789V20.931C181.993 14.6389 187.19 9.9677 194.278 9.91387C196.493 9.88884 198.69 10.3198 200.731 11.18C202.772 12.0403 204.615 13.3113 206.144 14.9141C206.129 14.678 206.155 14.4411 206.222 14.2143C206.308 13.9533 206.446 13.7123 206.626 13.5053C206.807 13.2984 207.027 13.1297 207.274 13.0093C207.521 12.8889 207.79 12.8192 208.064 12.8042C208.339 12.7893 208.613 12.8295 208.872 12.9224L207.945 15.9129C208.199 15.5747 208.549 15.3205 208.949 15.1832C209.209 15.0926 209.485 15.0549 209.759 15.0722C210.034 15.0896 210.302 15.1617 210.548 15.2843C210.795 15.4069 211.014 15.5775 211.193 15.7861C211.373 15.9948 211.509 16.2372 211.593 16.4991L208.244 17.6295C209.663 19.9894 210.423 22.687 210.445 25.4408V26.003C210.443 29.5278 209.043 32.9078 206.551 35.4008C204.059 37.8938 200.679 39.2958 197.155 39.299H192.836C187.926 39.293 183.643 33.3597 181.335 29.4242Z" fill="black"/>
</g>
<path d="M184.995 19.4238C183.249 20.3928 181.753 21.6608 181.717 30.74C181.688 38.4317 184.11 40.3995 185.366 40.9797C186.622 41.5598 189.026 41.2967 191.383 40.9797L191.323 44.7657C189.344 48.2634 188.684 52.3546 189.463 56.2972C194.29 52.5591 201.527 46.2311 201.527 46.2311L201.76 35.5668C201.76 35.5668 203.1 36.9484 205.498 34.9687C207.478 33.3299 208.208 30.5008 206.742 28.9278C206.361 28.5554 205.897 28.2787 205.389 28.1201C204.88 27.9616 204.341 27.9258 203.816 28.0156C203.291 28.1055 202.794 28.3185 202.367 28.6371C201.94 28.9558 201.595 29.371 201.359 29.8489C196.329 29.8489 194.421 23.4491 194.098 19.9561C191.317 17.0733 187.92 24.6214 184.995 19.4238Z" fill="#FFA8A7"/>
<path d="M189.379 56.2973L199.631 47.7623C200.492 47.0446 201.539 46.279 201.563 45.1605L201.599 43.5935C202.029 44.1241 202.352 44.7336 202.55 45.3878C203.028 46.7276 203.746 49.1978 200.468 52.1405C196.927 55.3105 189.379 56.2973 189.379 56.2973Z" fill="#37474F"/>
<path d="M191.359 43.5935C190.513 43.939 189.741 44.4447 189.086 45.0828C188.033 46.0996 185.868 48.5877 186.359 51.7637C186.503 52.6932 186.848 53.5802 187.37 54.3631C187.891 55.146 188.577 55.806 189.379 56.2973C189.072 54.2633 189.072 52.1948 189.379 50.1607C189.799 48.2785 190.452 46.4561 191.323 44.7359L191.359 43.5935Z" fill="#37474F"/>
<path d="M200.63 32.7735L201.826 28.832C200.725 28.4551 199.224 28.7303 199.146 29.8607C199.069 31.1167 199.535 32.3967 200.63 32.7735Z" fill="#FFFF00"/>
<path opacity="0.55" d="M200.63 32.7735L201.826 28.832C200.725 28.4551 199.224 28.7303 199.146 29.8607C199.069 31.1167 199.535 32.3967 200.63 32.7735Z" fill="black"/>
<path d="M182.932 18.8255C182.932 18.8255 184.182 26.0028 194.248 26.2421V18.0659L182.932 18.8255Z" fill="#FFFF00"/>
<path opacity="0.55" d="M182.932 18.8255C182.932 18.8255 184.182 26.0028 194.248 26.2421V18.0659L182.932 18.8255Z" fill="black"/>
<path d="M189.888 28.8919C189.881 29.0779 189.93 29.2617 190.027 29.4206C190.124 29.5794 190.265 29.7062 190.434 29.7853C190.602 29.8645 190.79 29.8924 190.974 29.8657C191.159 29.839 191.331 29.7588 191.47 29.6351C191.609 29.5114 191.709 29.3496 191.757 29.1697C191.805 28.9899 191.799 28.7999 191.74 28.6233C191.681 28.4468 191.572 28.2914 191.425 28.1765C191.279 28.0615 191.102 27.9921 190.916 27.9768C190.789 27.9687 190.66 27.986 190.539 28.0277C190.418 28.0694 190.307 28.1347 190.211 28.2198C190.116 28.3049 190.038 28.4081 189.982 28.5235C189.927 28.6388 189.894 28.7641 189.888 28.8919Z" fill="#263238"/>
<path d="M190.366 35.6207L187.752 36.3743C187.795 36.5492 187.872 36.7137 187.979 36.858C188.086 37.0024 188.222 37.1237 188.377 37.2147C188.532 37.3057 188.704 37.3645 188.882 37.3876C189.061 37.4107 189.242 37.3977 189.415 37.3493C189.766 37.2398 190.061 36.9987 190.239 36.6765C190.416 36.3542 190.462 35.9759 190.366 35.6207Z" fill="#F28F8F"/>
<path d="M182.692 25.8953L184.678 24.6153C184.601 24.4833 184.498 24.3684 184.375 24.2776C184.252 24.1869 184.111 24.1222 183.962 24.0875C183.814 24.0527 183.659 24.0488 183.509 24.0758C183.358 24.1028 183.215 24.1602 183.087 24.2445C182.822 24.4166 182.634 24.6839 182.56 24.9911C182.487 25.2983 182.534 25.622 182.692 25.8953Z" fill="#263238"/>
<path d="M182.579 28.204C182.572 28.3903 182.621 28.5744 182.718 28.7335C182.815 28.8925 182.957 29.0194 183.126 29.0984C183.295 29.1775 183.483 29.2052 183.668 29.178C183.852 29.1509 184.024 29.0702 184.163 28.9459C184.302 28.8216 184.402 28.6592 184.449 28.4789C184.496 28.2986 184.49 28.1084 184.43 27.9318C184.37 27.7553 184.26 27.6002 184.112 27.4859C183.965 27.3716 183.787 27.3031 183.602 27.2889C183.474 27.2817 183.347 27.2996 183.226 27.3417C183.106 27.3838 182.995 27.4492 182.9 27.5342C182.805 27.6192 182.728 27.7221 182.673 27.8371C182.618 27.952 182.586 28.0767 182.579 28.204Z" fill="#263238"/>
<path d="M187.196 27.9767L187.082 34.1731L184.098 33.1563L187.196 27.9767Z" fill="#F28F8F"/>
<path d="M191.419 41.2129C193.859 40.9557 198.901 39.6578 199.732 37.702C199.399 38.6902 198.773 39.5538 197.938 40.1782C196.407 41.4163 191.425 42.7261 191.425 42.7261L191.419 41.2129Z" fill="#F28F8F"/>
<path d="M130.687 75.341C130.513 74.9762 130.567 74.6113 130.316 74.2644C130.091 74.0346 129.837 73.8337 129.562 73.6663C129.098 73.2028 128.722 72.6574 128.456 72.0574C128.331 71.8671 128.161 71.7096 127.963 71.5983C127.764 71.4869 127.541 71.4249 127.314 71.4174C125.944 71.3756 124.724 72.9785 124.078 73.9235C123.605 74.5516 123.067 75.1289 122.475 75.6461C121.919 75.6999 121.464 74.5754 120.471 73.6603C119.107 72.4103 117.373 72.6735 117.905 73.6304C118.204 74.1747 119.401 75.4248 119.747 77.0098C119.957 77.9548 120.393 79.6773 119.837 80.6283L124.682 86.0711C126.016 85.1919 127.631 84.3186 128.767 83.4215C130.142 82.462 131.317 81.2429 132.224 79.8328C132.375 79.6252 132.481 79.3874 132.532 79.1356C132.584 78.8839 132.581 78.6239 132.523 78.3734C132.433 78.1282 132.254 77.9189 132.164 77.6737C132.027 77.2909 132.104 76.8423 131.907 76.4774C131.632 75.993 130.932 75.8494 130.687 75.341Z" fill="#B16668"/>
<path d="M73.2744 86.113C73.2744 86.113 73.5196 85.6645 73.717 85.3534C76.4683 80.9872 78.8189 78.9776 83.1013 80.3054C87.3838 81.6332 102.917 91.9027 102.917 91.9027C111.888 86.4121 116.153 83.5292 119.831 80.6284C122.732 78.3496 129.359 82.7337 125.214 85.7063C120.268 89.2352 109.197 101.909 105.991 103.051C102.785 104.194 73.2744 86.113 73.2744 86.113Z" fill="#B16668"/>
<path d="M73.2744 86.1129C73.7691 85.0293 74.3702 83.9975 75.0687 83.0326C76.3607 81.1785 78.2148 79.444 81.4625 79.9404C84.7103 80.4368 88.3946 82.1295 93.3051 85.12C98.2156 88.1106 102.923 90.9097 102.923 90.9097L114.945 84.2228L119.831 90.4372C119.831 90.4372 111.709 99.1816 108.12 102.041C104.532 104.899 105.65 104.277 100.405 101.945C95.1592 99.6122 73.2744 86.1129 73.2744 86.1129Z" fill="#EBEBEB"/>
<path d="M116.99 93.4339C114.598 92.3393 111.512 89.4505 111.44 86.1728L118.252 81.8425C118.204 84.1811 121.476 87.3212 123.318 87.2255L116.99 93.4339Z" fill="#E0E0E0"/>
<path d="M78.5437 202.732C78.4372 202.733 78.3316 202.713 78.2329 202.673C78.1343 202.632 78.0445 202.573 77.9689 202.498C77.8933 202.423 77.8333 202.334 77.7923 202.235C77.7514 202.137 77.7303 202.031 77.7303 201.925V149.734C77.7303 149.518 77.816 149.311 77.9686 149.159C78.1211 149.006 78.328 148.92 78.5437 148.92C78.7595 148.92 78.9664 149.006 79.1189 149.159C79.2715 149.311 79.3572 149.518 79.3572 149.734V201.925C79.3572 202.031 79.3361 202.137 79.2951 202.235C79.2542 202.334 79.1942 202.423 79.1186 202.498C79.043 202.573 78.9532 202.632 78.8546 202.673C78.7559 202.713 78.6503 202.733 78.5437 202.732Z" fill="#455A64"/>
<path d="M110.836 183.736C110.673 183.737 110.514 183.688 110.379 183.596C110.245 183.504 110.141 183.374 110.082 183.222L94.0766 142.718C94.0269 142.617 93.9986 142.507 93.9935 142.395C93.9884 142.283 94.0066 142.171 94.0469 142.066C94.0872 141.961 94.1489 141.866 94.2279 141.786C94.3069 141.706 94.4016 141.643 94.506 141.602C94.6105 141.561 94.7223 141.541 94.8346 141.545C94.9469 141.549 95.0571 141.576 95.1584 141.625C95.2596 141.674 95.3497 141.743 95.423 141.828C95.4962 141.913 95.551 142.013 95.5838 142.12L111.589 182.63C111.629 182.729 111.649 182.835 111.647 182.941C111.646 183.048 111.624 183.153 111.581 183.251C111.539 183.349 111.478 183.437 111.401 183.511C111.324 183.585 111.234 183.644 111.135 183.683C111.039 183.718 110.938 183.736 110.836 183.736Z" fill="#455A64"/>
<path d="M108.916 178.874C108.804 178.875 108.692 178.853 108.589 178.809C108.486 178.764 108.394 178.699 108.318 178.617L78.5378 147.108L48.8117 178.485C48.7386 178.563 48.6508 178.626 48.5533 178.669C48.4558 178.713 48.3506 178.737 48.2438 178.74C48.137 178.743 48.0307 178.724 47.931 178.686C47.8314 178.647 47.7404 178.589 47.6634 178.515C47.5088 178.366 47.4191 178.162 47.4135 177.947C47.4079 177.732 47.4869 177.524 47.6335 177.367L77.9516 145.368C78.028 145.286 78.1206 145.22 78.2236 145.176C78.3266 145.132 78.4376 145.11 78.5497 145.111C78.6617 145.11 78.7725 145.133 78.8754 145.177C78.9783 145.221 79.071 145.286 79.1478 145.368L109.514 177.504C109.662 177.66 109.742 177.869 109.736 178.084C109.731 178.3 109.64 178.504 109.484 178.652C109.331 178.798 109.127 178.878 108.916 178.874Z" fill="#455A64"/>
<path d="M46.2519 183.736C46.1518 183.736 46.0525 183.718 45.9588 183.682C45.7593 183.602 45.5992 183.447 45.5131 183.25C45.4269 183.053 45.4216 182.831 45.4982 182.63L61.5036 142.12C61.5941 141.937 61.7502 141.794 61.941 141.721C62.1317 141.647 62.3431 141.648 62.5331 141.724C62.7231 141.799 62.8777 141.943 62.9663 142.127C63.0548 142.312 63.0707 142.523 63.0109 142.718L47.0115 183.222C46.9513 183.374 46.8466 183.505 46.7111 183.596C46.5756 183.688 46.4155 183.737 46.2519 183.736Z" fill="#455A64"/>
<path d="M109.735 177.624L111.846 183.204C111.852 183.252 111.852 183.3 111.846 183.347V183.449C111.784 183.602 111.67 183.727 111.523 183.802C111.324 183.902 111.104 183.955 110.881 183.955C110.657 183.955 110.437 183.902 110.238 183.802C110.126 183.745 110.038 183.653 109.986 183.539V183.467L108.025 178.228L109.735 177.624Z" fill="#FFFF00"/>
<path d="M47.3584 177.624L45.241 183.204C45.2353 183.252 45.2353 183.3 45.241 183.347C45.235 183.381 45.235 183.415 45.241 183.449C45.2981 183.603 45.4115 183.729 45.558 183.802C45.7575 183.902 45.9777 183.955 46.201 183.955C46.4243 183.955 46.6445 183.902 46.844 183.802C46.9551 183.745 47.0437 183.653 47.0952 183.539V183.467L49.057 178.228L47.3584 177.624Z" fill="#FFFF00"/>
<path d="M79.4828 197.882V202.499C79.4744 202.581 79.4446 202.66 79.3963 202.727C79.3481 202.794 79.283 202.848 79.2076 202.882C79.0034 202.988 78.7768 203.043 78.5467 203.043C78.3167 203.043 78.09 202.988 77.8858 202.882C77.8097 202.849 77.744 202.796 77.6956 202.728C77.6471 202.661 77.6178 202.582 77.6107 202.499V197.882C77.899 197.729 78.2204 197.649 78.5467 197.649C78.8731 197.649 79.1945 197.729 79.4828 197.882Z" fill="#FFFF00"/>
<path d="M114.843 142.168C114.843 140.714 113.563 139.177 110.872 137.419C105.895 134.189 91.4151 126.103 84.4531 122.245C84.4484 122.231 84.4405 122.22 84.4301 122.21C84.4196 122.201 84.4069 122.194 84.3933 122.191C79.0103 118.937 77.4073 105.061 73.6991 93.2963C72.4371 89.283 70.8879 87.0161 69.0518 85.9515C68.6151 85.6943 67.0122 84.8151 66.6593 84.5998C63.0228 82.4167 58.2439 85.0364 52.3047 88.2901C46.826 91.2807 42.5436 95.1325 41.6823 105.318C41.156 111.521 41.6823 123.369 42.9144 132.353C44.7386 147.359 46.9756 147.383 50.2233 149.895C55.8216 154.22 68.4178 160.29 73.729 162.378C83.3585 166.17 91.2296 160.326 97.0911 157.432C102.473 154.71 107.668 151.633 112.642 148.221C114.113 147.156 114.873 146.079 114.855 144.943C114.831 144.482 114.843 142.634 114.843 142.168Z" fill="#263238"/>
<path d="M97.0792 154.632C102.461 151.911 107.657 148.833 112.63 145.421C115.967 142.999 115.662 140.523 110.878 137.419C104.233 133.106 80.6312 120.133 80.6312 120.133C80.6312 120.133 46.3894 140.344 47.8608 144.058C49.3321 147.772 67.0422 156.935 73.723 159.567C83.3466 163.371 91.2177 157.527 97.0792 154.632Z" fill="#455A64"/>
<path d="M68.8364 85.8138C65.2477 83.9238 60.5466 86.4957 54.7569 89.6716C51.0426 91.7052 47.8786 94.1156 45.9587 98.6433L43.5244 97.2258C45.4443 92.734 48.6024 90.3236 52.2987 88.29C58.2499 85.0363 63.0228 82.4226 66.6533 84.5997C66.9703 84.7851 68.2323 85.4849 68.8364 85.8138Z" fill="#455A64"/>
<path d="M54.751 89.6837C63.6568 84.8091 69.931 81.352 73.6991 93.2723C77.4073 105.037 79.0342 118.913 84.3933 122.167C84.3933 122.167 86.0261 122.305 72.7002 132.371C68.4596 135.577 63.3159 138.202 59.9366 140.212C53.3155 144.159 49.3022 145.744 48.6682 145.218C45.1633 142.311 43.2852 116.874 44.1286 106.688C44.9719 96.5021 49.2723 92.6862 54.751 89.6837Z" fill="#37474F"/>
<path d="M94.8781 199.867H101.517V188.318H94.8781V199.867Z" fill="#B16668"/>
<path d="M101.499 198.037V197.469C102.354 197.469 105.393 203.899 108.3 206.548C110.614 208.66 114.681 211.548 114.58 213.546C114.454 216.13 110.77 217.272 107.594 216.537C105.112 215.939 101.571 214.455 99.8723 212.619C98.1737 210.783 97.6174 208.372 96.7262 207.17C95.8351 205.968 93.7955 204.628 93.317 203.235C93.0538 202.475 93.3649 200.8 93.7357 199.389C94.0766 198.091 94.4415 196.667 94.8841 196.787V197.589C95.4164 198.187 96.8877 198.785 98.5505 198.827C99.6271 198.857 101.505 198.857 101.499 198.037Z" fill="#263238"/>
<path d="M112.445 191.422H119.084V179.873H112.445V191.422Z" fill="#B16668"/>
<path d="M119.072 189.598V189C119.921 189 122.965 195.429 125.872 198.085C128.187 200.196 132.254 203.079 132.152 205.083C132.027 207.661 128.342 208.809 125.166 208.073C122.684 207.475 119.143 205.986 117.445 204.15C115.746 202.314 115.19 199.903 114.299 198.701C113.408 197.499 111.368 196.159 110.89 194.772C110.62 194.006 110.937 192.337 111.308 190.926C111.649 189.628 112.014 188.198 112.457 188.324V189.119C112.989 189.717 114.46 190.316 116.123 190.363C117.194 190.411 119.078 190.417 119.072 189.598Z" fill="#263238"/>
<path d="M56.617 126.611C57.0776 137.144 56.1146 139.865 67.4428 148.209C72.7899 152.15 90.171 162.007 90.171 162.007C90.1134 165.866 90.2651 169.726 90.6255 173.568C91.1818 180.118 94.6269 193.689 94.6269 193.689C94.6269 193.689 98.9273 195.537 102.002 193.587C102.002 193.587 104.466 157.958 103.892 155.535C103.485 153.819 91.1519 142.622 91.1519 142.622L107.899 153.107C107.596 155.939 107.576 158.794 107.839 161.63C108.814 170.004 109.789 174.753 112.104 185.333C112.104 185.333 116.972 187.08 119.407 185.19C119.407 185.19 122.283 149.303 121.446 146.229C119.161 137.796 93.0957 125.337 89.0944 121.958C86.8395 120.032 56.617 126.611 56.617 126.611Z" fill="#FFFF00"/>
<path opacity="0.4" d="M56.617 126.611C57.0776 137.144 56.1146 139.865 67.4428 148.209C72.7899 152.15 90.171 162.007 90.171 162.007C90.1134 165.866 90.2651 169.726 90.6255 173.568C91.1818 180.118 94.6269 193.689 94.6269 193.689C94.6269 193.689 98.9273 195.537 102.002 193.587C102.002 193.587 104.466 157.958 103.892 155.535C103.485 153.819 91.1519 142.622 91.1519 142.622L107.899 153.107C107.596 155.939 107.576 158.794 107.839 161.63C108.814 170.004 109.789 174.753 112.104 185.333C112.104 185.333 116.972 187.08 119.407 185.19C119.407 185.19 122.283 149.303 121.446 146.229C119.161 137.796 93.0957 125.337 89.0944 121.958C86.8395 120.032 56.617 126.611 56.617 126.611Z" fill="black"/>
<path d="M66.6593 80.5565C66.3543 80.6343 59.3624 81.8484 59.3624 81.8484C56.3719 82.5243 54.4759 86.3821 54.4759 86.3821C54.133 94.6138 54.9382 102.853 56.8683 110.863L56.336 127.682C60.9414 132.694 86.696 132.873 89.531 122.221C89.531 122.221 88.6458 98.7988 88.2272 93.6969C87.5991 85.9215 84.788 81.3759 80.7687 80.2275C80.7687 80.2275 77.8559 80.2275 76.7973 80.2694L66.6593 80.5565Z" fill="#FAFAFA"/>
<path d="M79.3632 86.7947C78.6634 88.4515 78.4541 90.2398 76.7793 91.2925C74.4467 91.5497 72.2038 88.7565 70.9179 87.4048L74.6202 85.2815L76.4504 88.7565L77.5748 85.114L79.3632 86.7947Z" fill="#37474F"/>
<path d="M86.3371 56.5603C86.6601 61.7699 83.0056 66.2377 78.1789 66.5308C73.3522 66.8239 69.1714 62.8524 68.8544 57.6429C68.5374 52.4334 72.1799 47.9715 77.0126 47.6724C81.8453 47.3734 85.9902 51.3508 86.3371 56.5603Z" fill="#263238"/>
<path d="M60.5526 64.0128C59.3983 59.2279 59.0933 57.0748 60.1938 55.8008C60.543 55.399 60.9794 55.0823 61.4698 54.875C61.9601 54.6677 62.4913 54.5752 63.0228 54.6046L64.3446 63.2472L65.9117 69.3958L66.3663 74.8446C65.8624 74.8571 65.3653 74.7259 64.9332 74.4665C64.5011 74.207 64.1517 73.8299 63.926 73.3792C63.1724 72.0813 61.4618 66.8538 60.8098 64.8262H60.75C60.6842 64.5511 60.6184 64.282 60.5526 64.0248V64.0128Z" fill="#263238"/>
<path d="M65.4691 64.9758C64.9189 65.3466 64.0396 64.3059 63.292 63.6121C62.5444 62.9183 60.1878 62.057 59.195 64.5392C58.2021 67.0213 60.5527 70.1793 62.3948 70.6339C65.5648 71.4174 65.9117 69.3958 65.9117 69.3958L66.8508 80.6044C68.7354 82.8297 70.9311 84.7716 73.3701 86.3702C73.9683 86.7649 74.3869 85.9276 75.0568 86.2505C75.6549 86.5316 76.0796 88.0449 76.4564 88.7566C77.5569 86.8367 78.2507 81.7049 76.9528 79.6773L76.7315 76.2621C78.1246 76.3981 79.5282 76.3841 80.9183 76.2203C83.1851 75.7238 84.5069 73.8278 85.0512 71.3098C85.9185 67.2666 86.397 63.9112 84.9077 56.6501C83.2031 48.3125 73.1668 48.2766 67.9931 52.0028C62.8195 55.729 65.4691 64.9758 65.4691 64.9758Z" fill="#B16668"/>
<path d="M65.5289 65.9328C65.2418 65.9328 64.0396 64.2162 63.292 63.6121C62.2513 62.7808 63.0228 54.6046 63.0228 54.6046C63.0228 54.6046 61.8266 51.6141 63.6508 49.4429C65.6126 47.1163 69.4166 47.3495 72.144 47.1582C75.6788 46.9129 79.112 46.7455 82.1563 44.6999C82.3335 44.5382 82.5429 44.4158 82.7707 44.3405C82.9984 44.2653 83.2395 44.239 83.4782 44.2633C85.0751 44.7298 83.7593 47.7802 83.5559 48.7013C84.2069 48.5655 84.8062 48.2482 85.2845 47.7862C85.6613 47.4632 86.1517 46.9787 86.3371 47.7862C87.0608 50.8066 85.2246 53.6117 82.5332 54.8857C80.6551 55.7709 78.5139 55.8487 76.4444 55.7829C75.0149 55.735 73.5854 55.5317 72.1679 55.5676C70.9837 55.5734 69.7999 55.5196 68.6211 55.4061C67.5565 55.3283 67.389 56.369 66.9943 59.1981C66.6474 61.6623 66.4859 65.855 65.5289 65.9328Z" fill="#263238"/>
<path d="M63.0647 55.2326L59.506 53.5997C59.6017 53.3611 59.7448 53.1443 59.9267 52.9625C60.1086 52.7807 60.3255 52.6377 60.5642 52.5421C60.8029 52.4465 61.0585 52.4003 61.3156 52.4063C61.5727 52.4123 61.8259 52.4703 62.0599 52.577C62.5375 52.8046 62.9087 53.208 63.0959 53.7029C63.2832 54.1977 63.272 54.7458 63.0647 55.2326Z" fill="#263238"/>
<path d="M76.7255 76.2443C76.7255 76.2443 72.3892 75.4368 70.547 74.5935C69.462 74.1127 68.5485 73.3139 67.9273 72.3027C68.2599 73.3326 68.7969 74.2846 69.5063 75.1019C70.9119 76.6869 76.8092 77.608 76.8092 77.608L76.7255 76.2443Z" fill="#9A4A4D"/>
<path d="M76.3666 63.2891C76.3584 63.4909 76.291 63.6857 76.1728 63.8494C76.0546 64.0131 75.8909 64.1384 75.702 64.2097C75.5131 64.281 75.3074 64.2952 75.1105 64.2504C74.9137 64.2056 74.7343 64.1039 74.5948 63.9579C74.4554 63.8119 74.362 63.6281 74.3262 63.4294C74.2905 63.2307 74.314 63.0258 74.3938 62.8404C74.4737 62.6549 74.6064 62.4971 74.7753 62.3865C74.9442 62.2759 75.1419 62.2175 75.3438 62.2185C75.4813 62.2216 75.6168 62.2518 75.7426 62.3073C75.8684 62.3628 75.9821 62.4425 76.077 62.5419C76.172 62.6413 76.2465 62.7585 76.2962 62.8867C76.3458 63.0149 76.3698 63.1517 76.3666 63.2891Z" fill="#263238"/>
<path d="M74.6261 59.6645L72.6285 61.1777C72.436 60.9017 72.3555 60.5629 72.4032 60.2298C72.451 59.8967 72.6234 59.5942 72.8856 59.3834C73.0157 59.2806 73.1658 59.2061 73.3262 59.1644C73.4867 59.1227 73.654 59.1148 73.8177 59.1413C73.9813 59.1677 74.1377 59.2279 74.2769 59.3179C74.4161 59.408 74.535 59.526 74.6261 59.6645Z" fill="#263238"/>
<path d="M77.515 69.8923L80.2723 70.9271C80.2132 71.1126 80.1171 71.2843 79.9899 71.4317C79.8626 71.5791 79.7068 71.6992 79.5318 71.7847C79.3569 71.8702 79.1664 71.9194 78.9719 71.9293C78.7774 71.9392 78.5829 71.9095 78.4002 71.8422C78.0281 71.6961 77.7275 71.4108 77.5622 71.0467C77.397 70.6827 77.38 70.2686 77.515 69.8923Z" fill="#9A4A4D"/>
<path d="M84.3992 59.1261L82.0068 58.2649C82.0536 58.1069 82.1326 57.9604 82.2387 57.8344C82.3449 57.7084 82.4759 57.6057 82.6235 57.5327C82.7712 57.4597 82.9324 57.418 83.0969 57.4102C83.2615 57.4024 83.4259 57.4286 83.5798 57.4873C83.9017 57.6017 84.1668 57.8362 84.3195 58.1417C84.4723 58.4472 84.5008 58.8 84.3992 59.1261Z" fill="#263238"/>
<path d="M84.2677 62.039C84.2606 62.2411 84.1942 62.4365 84.0767 62.6011C83.9592 62.7656 83.7958 62.8918 83.607 62.964C83.4182 63.0362 83.2122 63.0512 83.0149 63.007C82.8177 62.9629 82.6377 62.8616 82.4977 62.7158C82.3576 62.57 82.2636 62.3862 82.2274 62.1873C82.1912 61.9884 82.2145 61.7832 82.2942 61.5975C82.3739 61.4117 82.5066 61.2535 82.6757 61.1427C82.8448 61.0319 83.0428 60.9733 83.2449 60.9744C83.3821 60.9767 83.5175 61.0061 83.6433 61.061C83.769 61.1158 83.8827 61.195 83.9778 61.2939C84.0728 61.3929 84.1474 61.5097 84.1971 61.6375C84.2469 61.7654 84.2709 61.9018 84.2677 62.039Z" fill="#263238"/>
<path d="M79.6383 61.9135L79.9732 68.08L83.1911 66.9854L79.6383 61.9135Z" fill="#9A4A4D"/>
<path d="M76.4205 88.7625C76.4205 88.7625 75.9121 86.4119 75.308 85.5267C74.7039 84.6415 73.6572 84.8927 71.4621 83.7324C68.2563 82.0756 66.6354 79.1867 66.6115 78.1759V76.89C66.3314 76.9366 66.0653 77.045 65.8325 77.2075C65.5997 77.3699 65.4061 77.5823 65.2657 77.829C64.7155 78.7142 63.6628 80.365 63.1903 81.1605C62.7178 81.956 64.2729 84.3903 66.8387 86.8904C68.7706 88.7744 71.7193 89.9168 72.7122 89.552C73.083 89.4084 74.5065 87.004 74.9192 86.8904C75.3319 86.7768 76.4205 88.7625 76.4205 88.7625Z" fill="#EBEBEB"/>
<path d="M76.7913 77.4822C77.2562 77.6324 77.6738 77.9011 78.0031 78.2619C78.3325 78.6227 78.5621 79.0631 78.6694 79.5397C79.0103 80.5565 79.4589 82.9309 79.8058 84.3245C80.1527 85.7181 79.3632 88.0747 79.1718 88.3737C79.0522 88.5651 78.7412 87.1177 78.4062 86.2863C78.0713 85.455 77.8081 86.0292 77.7064 86.2086C77.3849 87.1127 76.9509 87.9728 76.4145 88.7685C76.8262 87.6481 77.0053 86.4555 76.9408 85.2636C76.7734 83.541 76.7973 80.2694 76.7973 80.2694L76.7913 77.4822Z" fill="#EBEBEB"/>
<path d="M77.9456 87.8655C78.7591 88.1048 79.4768 88.984 78.789 91.6515C78.3883 93.2246 78.161 93.3143 78.161 93.3143C77.7921 93.5489 77.3741 93.6953 76.9394 93.742C76.5047 93.7887 76.0652 93.7344 75.6549 93.5834C74.4168 92.447 73.1668 89.7376 74.3211 88.5833C75.4755 87.4289 77.2877 87.6681 77.9456 87.8655Z" fill="#455A64"/>
<path d="M78.161 93.3142C78.161 93.3142 81.935 114.14 82.0846 115.821C82.2341 117.502 79.9194 123.477 78.4959 123.531C77.0724 123.585 74.2314 118.148 74.1895 116.646C74.1476 115.145 75.6549 93.5893 75.6549 93.5893L78.161 93.3142Z" fill="#455A64"/>
<path d="M75.6549 93.5893C76.0593 93.7692 76.504 93.8391 76.9441 93.7918C77.3842 93.7446 77.804 93.5819 78.161 93.3202L78.2208 93.6492C77.8597 93.9387 77.4341 94.1367 76.98 94.2263C76.5259 94.3159 76.0569 94.2943 75.613 94.1635L75.6549 93.5893Z" fill="#37474F"/>
<path d="M70.2599 142.425V143.113C70.2597 143.455 70.3497 143.791 70.5209 144.087C70.692 144.383 70.9383 144.629 71.2349 144.799L89.7762 155.482C90.0725 155.65 90.4074 155.738 90.7482 155.738C91.0889 155.738 91.4238 155.65 91.7201 155.482L125.77 135.822C126.067 135.652 126.314 135.406 126.485 135.11C126.657 134.814 126.746 134.477 126.745 134.135V133.663L90.7751 154.447L70.2599 142.425Z" fill="#37474F"/>
<path d="M126.763 133.663L106.577 122.011C106.401 121.908 106.201 121.854 105.997 121.854C105.793 121.854 105.593 121.908 105.417 122.011L70.3915 142.234C70.3517 142.256 70.3185 142.288 70.2954 142.328C70.2723 142.367 70.2602 142.412 70.2602 142.458C70.2602 142.503 70.2723 142.548 70.2954 142.588C70.3185 142.627 70.3517 142.66 70.3915 142.682L90.7751 154.447L126.763 133.663Z" fill="#455A64"/>
<path d="M90.5837 152.73L79.6921 146.45L111.535 128.07L122.481 134.315L90.5837 152.73Z" fill="#263238"/>
<path d="M85.2306 135.26L85.428 135.379L90.7691 138.459L100.261 132.981L100.458 132.867L94.92 129.667L85.2306 135.26Z" fill="#263238"/>
<path d="M85.428 135.379L90.7691 138.46L100.261 132.981L94.92 129.895L85.428 135.379Z" fill="#37474F"/>
<path d="M90.7751 154.447V155.739C91.1151 155.74 91.4494 155.651 91.744 155.482L125.794 135.822C126.091 135.652 126.338 135.406 126.509 135.11C126.68 134.814 126.77 134.477 126.769 134.135V133.663L90.7751 154.447Z" fill="#37474F"/>
<path d="M90.7751 154.447V155.739C91.1151 155.74 91.4494 155.651 91.744 155.482L125.794 135.822C126.091 135.652 126.338 135.406 126.509 135.11C126.68 134.814 126.77 134.477 126.769 134.135V133.663L90.7751 154.447Z" fill="#263238"/>
<path d="M91.3193 154.734C91.6411 154.857 91.9863 154.907 92.3297 154.88C92.6732 154.853 93.0064 154.75 93.3051 154.578L127.206 135.008C127.499 134.838 127.752 134.604 127.945 134.325C128.138 134.046 128.268 133.728 128.324 133.393L132.039 111.263C132.047 111.138 132.047 111.012 132.039 110.887C132.039 110.582 131.979 110.28 131.862 109.999C131.745 109.717 131.573 109.462 131.357 109.248L96.1281 129.583C95.91 129.709 95.7225 129.882 95.5787 130.089C95.435 130.295 95.3387 130.531 95.2968 130.78L91.3193 154.734Z" fill="#37474F"/>
<path d="M90.7751 154.447L91.0083 154.579C91.1104 154.638 91.2163 154.69 91.3253 154.734L95.3327 130.78C95.3747 130.532 95.4709 130.296 95.6147 130.089C95.7584 129.882 95.946 129.71 96.164 129.584L131.393 109.248C131.251 109.109 131.092 108.988 130.92 108.889L95.6317 129.267C95.415 129.393 95.2288 129.566 95.0862 129.773C94.9436 129.98 94.8481 130.215 94.8063 130.463L90.7751 154.447Z" fill="#455A64"/>
<path d="M110.411 134.303C110.656 132.819 112.205 130.852 113.826 129.907C115.447 128.962 116.589 129.392 116.344 130.876C116.099 132.359 114.55 134.327 112.929 135.272C111.308 136.217 110.16 135.786 110.411 134.303Z" fill="#FFFF00"/>
<path d="M73.0053 138.364C68.8664 136.569 55.1876 130.546 50.8752 128.118C46.5629 125.69 45.8392 124.111 46.0904 121.288C46.7902 114.2 48.2974 96.5439 49.7089 91.2267C50.953 86.5675 52.6995 82.9788 59.3265 81.8484C61.3661 83.9358 61.5993 94.301 58.7284 98.8526C57.7475 104.935 56.8145 119.667 56.8145 119.667C56.8145 119.667 62.2931 123.393 69.1295 127.508C72.1201 129.302 75.1525 131.192 77.5928 132.03C79.4828 132.676 82.8561 133.1 84.9376 134.38C85.8168 134.919 90.3205 139.428 91.0383 140.595C91.756 141.761 92.1926 144.147 89.8002 144.901C87.6111 145.595 85.8347 144.662 84.0583 143.442C83.2172 142.843 82.4179 142.187 81.6659 141.48C79.8935 141.674 78.1042 141.319 76.5401 140.463C75.2661 139.697 73.0053 138.364 73.0053 138.364Z" fill="#B16668"/>
<path d="M60.7141 81.6272C60.7141 81.6272 54.3921 82.0698 51.6886 85.6644C48.8177 89.4863 47.8069 98.2785 46.9755 106.706C46.1441 115.133 45.7195 122.179 46.0724 124.344C46.3774 126.216 47.0592 127.161 51.8979 129.542C55.4866 131.27 67.7239 136.055 67.7239 136.055C67.7239 136.055 68.7826 131.3 71.4561 128.878L56.8742 119.667L59.6853 99.6542C59.6853 99.6542 62.0239 94.4746 61.9163 89.1036C61.8086 83.7325 60.7141 81.6272 60.7141 81.6272Z" fill="#EBEBEB"/>
<path d="M65.3495 135.128C65.2298 132.484 66.4559 129.829 68.8663 127.167L76.1034 131.276C74.2373 131.563 72.2935 136.91 73.2325 138.495L65.3495 135.128Z" fill="#E0E0E0"/>
</svg>
